<?xml version="1.0" encoding="utf-8" ?>
<svg baseProfile="full" height="200mm" version="1.1" viewBox="0,0,200,200" width="200mm" xmlns="http://www.w3.org/2000/svg" xmlns:ev="http://www.w3.org/2001/xml-events" xmlns:xlink="http://www.w3.org/1999/xlink"><defs /><rect fill="#1a1a1a" height="200" width="200" x="0" y="0" /><text alignment-baseline="middle" fill="#e1ed5e" style="dominant-baseline: central; font-size:9.0px; font-family:Arial;" text-anchor="middle" x="100.0" y="100.0">2025</text><line stroke="#e1ed5e" stroke-width="0.3" x1="100.0" x2="100.0" y1="15.0" y2="10.0" /><path d="M 100.0 14.0 a86.0,86.0 0 0,1 42.46469731375804,11.215312516191453" fill="none" id="id13" stroke="none" /><text fill="#e1ed5e" style="font-size:6.75px; font-family:Arial;" text-anchor="middle"><textPath startOffset="22.20632615414155" xlink:href="#id13">January</textPath></text><path d="M 101.08401301168833 79.027996857942 l 0.9911097363880702 -19.174637464251266 a40.200234904683626,40.200234904683626 0 0,0 0.69075097138916,0.041667984953273604 l -1.321022756616842 19.15473620991769" fill="#ffe215" stroke="none" /><path d="M 104.66035177308747 79.52364482259891 l 2.690929391784444 -11.823233237816773 a33.12559050881171,33.12559050881171 0 0,0 0.5548951474466195,0.13132575345743894 l -2.8940482261935867 11.775161572218465" fill="#ff840c" stroke="none" /><path d="M 105.36241919743992 79.69619591428918 l 9.530166296560154 -36.08420421178186 a58.3214933146795,58.3214933146795 0 0,0 0.9684203724978085,0.26470587009515684 l -10.149884558281673 35.914811800860406" fill="#4aff2c" stroke="none" /><path d="M 106.74666289553966 80.11325718540242 l 5.219268098804509 -15.384530688494797 a37.24575464521229,37.24575464521229 0 0,0 0.6053641110788035,0.21119965171948427 l -5.483314213946587 15.292410183603105" fill="#ffbc11" stroke="none" /><path d="M 107.4271985657038 80.35727306442388 l 10.022649891212936 -26.50692225909564 a49.338497463548954,49.338497463548954 0 0,0 0.7918049647065345,0.3072080248779417 l -10.477438020919138 26.33047153032715" fill="#acff20" stroke="none" /><path d="M 110.36928655335952 81.73862282372117 l 10.28961338701238 -18.121064558433183 a41.83864497478393,41.83864497478393 0 0,0 0.623203088444547,0.3609994538030736 l -10.600013207922256 17.94126094724006" fill="#fff717" stroke="none" /><line stroke="#e1ed5e" stroke-width="0.3" x1="143.23703022742887" x2="145.7803849466894" y1="26.81831364943548" y2="22.513508569990506" /><path d="M 143.74570117128098 25.957352633546492 a86.0,86.0 0 0,1 28.547481713284135,27.462654790039103" fill="none" id="id14" stroke="none" /><text fill="#e1ed5e" style="font-size:6.75px; font-family:Arial;" text-anchor="middle"><textPath startOffset="19.985693538727396" xlink:href="#id14">February</textPath></text><path d="M 111.90073688211348 82.69761687909136 l 4.986459585599158 -7.249772431876653 a29.799089697963787,29.799089697963787 0 0,0 0.42012297753908123,0.29432299405689266 l -5.11051370272189 7.162864595055824" fill="#ff5507" stroke="none" /><path d="M 115.68641384162765 86.03803664274999 l 6.7453453941573915 -6.003811079833689 a30.03025093609331,30.03025093609331 0 0,0 0.34035447912329275,0.3890840058587074 l -6.847691736858533 5.886811517772033" fill="#ff5808" stroke="none" /><path d="M 115.9244219780498 86.31012108654704 l 11.087892412707799 -9.532019733249548 a35.62192731314316,35.62192731314316 0 0,0 0.395724646156651,0.4684131630708081 l -11.250327672351567 9.339747620549634" fill="#ffa60f" stroke="none" /><path d="M 116.15771136456269 86.58626213691792 l 8.473053328553027 -7.034122202380447 a32.012334351377326,32.012334351377326 0 0,0 0.3483269843544712,0.4270076961723418 l -8.592878804983908 6.8872303366000045" fill="#ff740a" stroke="none" /><path d="M 116.60985879189232 87.15038557335679 l 7.051805662885759 -5.4553735173192175 a29.915663930441497,29.915663930441497 0 0,0 0.31158454598843893,0.41000873899084284 l -7.144666149098311 5.333180002447341" fill="#ff5608" stroke="none" /><path d="M 117.04232023915458 87.72973835380427 l 12.279664928973176 -8.841208209428002 a36.1313295308215,36.1313295308215 0 0,0 0.3590548810852257,0.5078576659656101 l -12.430032429862285 8.628524043130598" fill="#ffad10" stroke="none" /><path d="M 117.45458315368197 88.32363383020206 l 13.419606263750273 -8.97713999872914 a37.145428914428635,37.145428914428635 0 0,0 0.350941813223603,0.5345084582734159 l -13.572144712331802 8.74481347647805" fill="#ffba11" stroke="none" /><line stroke="#e1ed5e" stroke-width="0.3" x1="172.23445277983987" x2="176.4835382374775" y1="55.19839476539836" y2="52.563006222186495" /><path d="M 173.08426987136738 54.67131705675599 a86.0,86.0 0 0,1 12.851231095245387,41.99856678651699" fill="none" id="id15" stroke="none" /><text fill="#e1ed5e" style="font-size:6.75px; font-family:Arial;" text-anchor="middle"><textPath startOffset="22.20632615414155" xlink:href="#id15">March</textPath></text><path d="M 118.21658344932153 89.55222093294921 l 16.916830615679906 -9.70233025742965 a40.50165045589321,40.50165045589321 0 0,0 0.34164561396696813,0.6077494254051868 l -17.081333870939307 9.40969732208967" fill="#ffe615" stroke="none" /><path d="M 118.56541770881063 90.18545643968196 l 9.737403851357582 -5.14764471031555 a32.01432157820322,32.01432157820322 0 0,0 0.253356107146472,0.4894033573777372 l -9.82456939166417 4.979268630677468" fill="#ff740a" stroke="none" /><path d="M 118.73160827565052 90.50648371742162 l 13.343353977280694 -6.762652004216236 a35.95922984291445,35.95922984291445 0 0,0 0.27507096267481895,0.5545262756947742 l -13.457784952908922 6.5319661400225115" fill="#ffaa0f" stroke="none" /><path d="M 119.196687751892 91.48605970444005 l 27.86828214254893 -12.359886943417933 a51.486192855631955,51.486192855631955 0 0,0 0.3523354394374148,0.8132387720091553 l -28.076908291829028 11.878349026822175" fill="#94ff23" stroke="none" /><path d="M 119.61058180528143 92.48833698450437 l 10.66890433148194 -4.08663112998875 a32.4248008134456,32.4248008134456 0 0,0 0.19515933531277585,0.5229299915212609 l -10.737668255296342 3.902378001438156" fill="#ff7a0b" stroke="none" /><path d="M 120.08093135843002 93.85539295169968 l 29.382728602176957 -8.990883841223754 a51.72752401928223,51.72752401928223 0 0,0 0.25320402029499944,0.8536780819736308 l -29.53313851958366 8.483776372503593" fill="#91ff24" stroke="none" /><path d="M 120.37134235888165 94.90015583598534 l 16.106895067534087 -4.032265197032873 a37.60395228057936,37.60395228057936 0 0,0 0.1517896063785945,0.6292659133033591 l -16.1739174741735 3.754414052070108" fill="#ffc011" stroke="none" /><path d="M 120.45610955862082 95.25157060432595 l 6.0701402919371965 -1.4090476253805995 a27.231534191063233,27.231534191063233 0 0,0 0.10206069482774306,0.4575180828216035 l -6.093495373766976 1.3043513730090321" fill="#ff3004" stroke="none" /><path d="M 120.53481517161879 95.60439243477599 l 14.325175110024764 -3.066394684370553 a35.64969004085783,35.64969004085783 0 0,0 0.12328121862758182,0.6011630044617395 l -14.375835624567342 2.8193560237454016" fill="#ffa60f" stroke="none" /><path d="M 120.73433829027371 96.67025291283417 l 14.452619623519961 -2.320959917775897 a35.63779590382639,35.63779590382639 0 0,0 0.0920543046950305,0.6065228518293986 l -14.49042982165429 2.0718379535544162" fill="#ffa60f" stroke="none" /><path d="M 120.78858239683441 97.02765380044208 l 14.568713622089914 -2.0830309513389698 a35.71687584192733,35.71687584192733 0 0,0 0.08178144245878008,0.6093667377579173 l -14.60241106360653 1.831945871516388" fill="#ffa70f" stroke="none" /><path d="M 120.83666639777658 97.38593545837742 l 19.086449362373607 -2.3944910165178652 a40.2360634353975,40.2360634353975 0 0,0 0.08029901024298632,0.6879528819827576 l -19.12483872562018 2.0655943962102548" fill="#ffe315" stroke="none" /><path d="M 120.87857604477298 97.74499172005257 l 5.95571239052664 -0.6432517583968738 a26.990349147032518,26.990349147032518 0 0,0 0.0459129928748671,0.46233757252467994 l -5.965902509083736 0.5406386551677589" fill="#ff2c04" stroke="none" /><path d="M 120.94382443527127 98.46500227214037 l 32.63895459805299 -2.392147685470042 a53.726498862586325,53.726498862586325 0 0,0 0.059660485756069304,0.9229213082903632 l -32.675295674813476 1.8299673129266434" fill="#7bff26" stroke="none" /><path d="M 120.98425023603335 99.18683210126433 l 23.533721661678616 -0.9119633428787549 a44.55138493567026,44.55138493567026 0 0,0 0.0230994805525595,0.7665593024198977 l -23.54593283668682 0.5067338930338582" fill="#e5ff1a" stroke="none" /><line stroke="#e1ed5e" stroke-width="0.3" x1="184.98032266829074" x2="189.97916517819016" y1="98.17113171792111" y2="98.06355123074" /><path d="M 185.9800911702706 98.14961562048488 a86.0,86.0 0 0,1 -9.607161424134198,41.387399972396054" fill="none" id="id16" stroke="none" /><text fill="#e1ed5e" style="font-size:6.75px; font-family:Arial;" text-anchor="middle"><textPath startOffset="21.466115282336823" xlink:href="#id16">April</textPath></text><path d="M 120.95626037817324 101.35467743843564 l 18.3796364060865 1.1881165015447341 a39.41799813337984,39.41799813337984 0 0,0 -0.04959805529745758,0.6767260586954095 l -18.35646179212471 -1.5043156967369138" fill="#ffd814" stroke="none" /><path d="M 120.92983693683757 101.71520430193887 l 8.767856118922738 0.7185275537187068 a29.797248590757448,29.797248590757448 0 0,0 -0.04629272690980046,0.5108363839389314 l -8.754188795735864 -0.8693453262062087" fill="#ff5507" stroke="none" /><path d="M 120.8583938346157 102.4346265915055 l 39.9878993554897 4.667454449333199 a61.25937438536985,61.25937438536985 0 0,0 -0.13126568532494926,1.0463166654996998 l -39.901632160917906 -5.355088869120294" fill="#30ff34" stroke="none" /><path d="M 120.5718875245553 104.21870165774334 l 28.653176994349693 5.875941385611351 a50.24946561967707,50.24946561967707 0 0,0 -0.18105591046171016,0.8458329370608654 l -28.547787045163542 -6.368288142088385" fill="#a2ff22" stroke="none" /><path d="M 120.32669344350535 105.2749913415812 l 20.78795914707655 5.394694656794231 a42.47654478589533,42.47654478589533 0 0,0 -0.18975268460569014,0.7061403291490929 l -20.69201838612908 -5.751725919118872" fill="#ffff18" stroke="none" /><path d="M 120.13307415673323 105.97154293290107 l 17.008441534001694 5.0447655460535525 a38.74082136853316,38.74082136853316 0 0,0 -0.19513055771014923,0.637697952775277 l -16.91908420378541 -5.336790471380886" fill="#ffcf13" stroke="none" /><path d="M 119.9155931802556 106.66101706037122 l 9.135090605497506 3.0553443133986944 a30.632497560034288,30.632497560034288 0 0,0 -0.17155536115091158,0.49862018278905346 l -9.081144413403363 -3.212137199277048" fill="#ff6108" stroke="none" /><path d="M 119.79798401119884 107.00284435728193 l 20.476450184180035 7.242828034831138 a42.71965860890411,42.71965860890411 0 0,0 -0.2511829245875649,0.6911475296914842 l -20.348742998587245 -7.594223361528754" fill="#fcff18" stroke="none" /><path d="M 119.54520255179757 107.68017299344265 l 2.8282485662757058 1.1113437274384168 a24.038762056028293,24.038762056028293 0 0,0 -0.15464637667895295,0.3838196244601178 l -2.8086995753393604 -1.1598627197413482" fill="#ff0000" stroke="none" /><path d="M 119.41010516605496 108.01547362559984 l 27.060265361996777 11.174635142633917 a50.27678998853309,50.27678998853309 0 0,0 -0.3372112637469158,0.7970678169007173 l -26.86390311705755 -11.638777485200798" fill="#a1ff22" stroke="none" /><path d="M 118.97047184881838 109.00673069616215 l 29.399546316436695 13.958208228646917 a53.54481372763674,53.54481372763674 0 0,0 -0.4024702129561524,0.8292078464290285 l -29.15492284686583 -14.462205031041222" fill="#7dff26" stroke="none" /><line stroke="#e1ed5e" stroke-width="0.3" x1="174.80103733775053" x2="179.2010983576182" y1="140.37084112569926" y2="142.7455964860345" /><path d="M 175.68104954172406 140.8457921977663 a86.0,86.0 0 0,1 -30.038265399797805,32.042727171017184" fill="none" id="id17" stroke="none" /><text fill="#e1ed5e" style="font-size:6.75px; font-family:Arial;" text-anchor="middle"><textPath startOffset="22.206326154141568" xlink:href="#id17">May</textPath></text><path d="M 117.55443506779139 111.5257021239791 l 9.81360253190244 6.443309574420011 a32.73980548927343,32.73980548927343 0 0,0 -0.31336186822861845,0.46843347550517894 l -9.7012375582631 -6.611279964130997" fill="#ff7e0b" stroke="none" /><path d="M 117.35343817320211 111.8261652097733 l 17.007998361345436 11.590752017051718 a41.58197125108082,41.58197125108082 0 0,0 -0.4081747539099016,0.5880061761188857 l -16.805962700273398 -11.881799455357624" fill="#fff417" stroke="none" /><path d="M 116.93607887273984 112.41649034213515 l 7.089878752951521 5.197862605884899 a29.79114079066022,29.79114079066022 0 0,0 -0.30676183563240667,0.41095760913233087 l -6.999355650624023 -5.319133094526546" fill="#ff5507" stroke="none" /><path d="M 116.71984013943494 112.70617746262583 l 11.657131105078076 8.858791429283565 a35.64127355077169,35.64127355077169 0 0,0 -0.3754098445284127,0.4852678298092817 l -11.502914443331594 -9.0581372532061" fill="#ffa60f" stroke="none" /><path d="M 115.80600337817218 113.82643327865902 l 22.01129720805802 19.25456580910473 a50.24440988084061,50.24440988084061 0 0,0 -0.5750380604524585,0.6460613568549617 l -21.676600297957222 -19.630601335700558" fill="#a2ff22" stroke="none" /><path d="M 115.56566222782051 114.09645910891815 l 10.846910561697735 9.823098365695031 a35.6338214501746,35.6338214501746 0 0,0 -0.41564916957425524,0.45110508186486653 l -10.676214984127757 -10.008354702361233" fill="#ffa60f" stroke="none" /><path d="M 115.07121518719521 114.62390073753431 l 12.34595395229327 11.979525397653513 a38.2026628097272,38.2026628097272 0 0,0 -0.4619963984939265,0.4679999125263644 l -12.137916928743808 -12.190265804160541" fill="#ffc812" stroke="none" /><path d="M 114.81725581225074 114.88116024355365 l 20.68345171290456 20.77265609972507 a50.313962819746834,50.313962819746834 0 0,0 -0.618981651935434,0.6058038247871679 l -20.322820108593334 -21.12561002743481" fill="#a1ff22" stroke="none" /><path d="M 114.55890576462653 115.13401014063108 l 7.969832691594559 8.284656190768276 a32.49581494854734,32.49581494854734 0 0,0 -0.40645171996432894,0.3843254706634893 l -7.826045137239422 -8.420616298177688" fill="#ff7b0b" stroke="none" /><path d="M 114.0293411484842 115.62618273729858 l 11.735505266343443 13.07125886137752 a38.56644221456112,38.56644221456112 0 0,0 -0.49779662302109456,0.4392476419952048 l -11.50876629041576 -13.271329645145014" fill="#ffcd13" stroke="none" /><path d="M 113.75828350139079 115.86535959552629 l 8.297616434768827 9.568393361719039 a33.66509336811753,33.66509336811753 0 0,0 -0.4410680676107726,0.37588777598527556 l -8.131682890581006 -9.70980552792726" fill="#ff8b0c" stroke="none" /><path d="M 112.92097659922987 116.55440617244103 l 38.762929797689644 49.6632185173231 a84.0,84.0 0 0,0 -1.147485086026025,0.8798426326905142 l -37.90231598317012 -50.32310049184099" fill="#4dd2ff" stroke="none" /><path d="M 112.04921762599082 117.19931262002967 l 8.748136840094013 12.487278844646381 a36.24670558241888,36.24670558241888 0 0,0 -0.514087224420227,0.3535938806538175 l -8.531892731050903 -12.636013514665292" fill="#ffae10" stroke="none" /><path d="M 111.7513745106137 117.40417183066458 l 9.855667270637484 14.596567110435304 a38.61232377510011,38.61232377510011 0 0,0 -0.554041433042004,0.36718845086429647 l -9.602951138855516 -14.764053582390918" fill="#ffce13" stroke="none" /><line stroke="#e1ed5e" stroke-width="0.3" x1="143.8653032363475" x2="146.44561519142675" y1="172.8068346515853" y2="177.08958963109032" /><path d="M 144.38136562736335 173.6633856474863 a86.0,86.0 0 0,1 -40.68145358897372,12.25698825130547" fill="none" id="id18" stroke="none" /><text fill="#e1ed5e" style="font-size:6.75px; font-family:Arial;" text-anchor="middle"><textPath startOffset="21.466115282336833" xlink:href="#id18">June</textPath></text><path d="M 110.5260780823613 118.17145234162733 l 7.720156466116065 13.327514217191135 a36.4020599619254,36.4020599619254 0 0,0 -0.5449063064590333,0.3094120219884663 l -7.489601392735833 -13.45842940497423" fill="#ffb010" stroke="none" /><path d="M 110.21172684928248 118.3499491758327 l 4.594265273459761 8.255658960776376 a30.447919256617595,30.447919256617595 0 0,0 -0.4601654761007484,0.25091890770577974 l -4.4514769854903635 -8.333518520241928" fill="#ff5e08" stroke="none" /><path d="M 109.2508944713604 118.85261126421891 l 7.4338721881997225 15.149659634092467 a37.875267190161466,37.875267190161466 0 0,0 -0.5877652273038115,0.28216302753987077 l -7.171994292895679 -15.275376938131899" fill="#ffc412" stroke="none" /><path d="M 108.92500713936063 119.00905698771935 l 4.282688378489125 9.121546479028945 a31.076905770936392,31.076905770936392 0 0,0 -0.48617895896537056,0.2231809144888966 l -4.125041423756334 -9.193914463851916" fill="#ff6709" stroke="none" /><path d="M 108.2653958097858 119.30500536409082 l 6.698060570983512 15.644271396991076 a38.017850714919234,38.017850714919234 0 0,0 -0.6038113458090675,0.25239319151874035 l -6.427777765676983 -15.75724963152979" fill="#ffc612" stroke="none" /><path d="M 107.93186726928326 119.44442032107085 l 5.634943522357466 13.81367168844655 a35.918783932222766,35.918783932222766 0 0,0 -0.574493452239985,0.22860280083991244 l -5.396328994075615 -13.908621333692532" fill="#ffaa0f" stroke="none" /><path d="M 107.2578585660854 119.70592522655815 l 8.02499173493803 21.78878048290906 a44.219634951441904,44.219634951441904 0 0,0 -0.7165274671461612,0.2569212568924167 l -7.648744707162135 -21.923689280841437" fill="#e9ff1a" stroke="none" /><path d="M 105.88484417918355 120.15858648285463 l 2.63796601115275 9.036376215832364 a30.413551922099224,30.413551922099224 0 0,0 -0.5038060371871704,0.14238061849157993 l -2.4820288058609736 -9.080445627662463" fill="#ff5e08" stroke="none" /><path d="M 104.83641907484287 120.43548508189849 l 3.3738730313535785 14.25573982186103 a35.649543921238276,35.649543921238276 0 0,0 -0.5983688531224128,0.13618680284893045 l -3.127984028838304 -14.311703358287645" fill="#ffa60f" stroke="none" /><path d="M 103.41894727170886 120.7198165907248 l 2.126063906512554 12.884566710817413 a34.05879807103547,34.05879807103547 0 0,0 -0.5792657714082518,0.09046940029168987 l -1.9039622714957856 -12.919254418456209" fill="#ff900d" stroke="none" /><path d="M 101.98527174616119 120.90594882070398 l 0.9212283880463346 9.701016281482193 a30.74465898000156,30.74465898000156 0 0,0 -0.527279220511719,0.04549586982100257 l -0.7541048497930739 -9.71543640358186" fill="#ff6209" stroke="none" /><line stroke="#e1ed5e" stroke-width="0.3" x1="102.19456741930631" x2="102.32365962044197" y1="184.97166512339345" y2="189.96999836594603" /><path d="M 102.22038585953345 185.97133177190398 a86.0,86.0 0 0,1 -42.740103519485714,-10.115201625700543" fill="none" id="id19" stroke="none" /><text fill="#e1ed5e" style="font-size:6.75px; font-family:Arial;" text-anchor="middle"><textPath startOffset="22.20632615414155" xlink:href="#id19">July</textPath></text><path d="M 95.86986931433489 120.58985236759428 l -1.6797167822626644 8.37385622837484 a29.54066253882607,29.54066253882607 0 0,0 -0.49770184006046253,-0.10429825964902205 l 1.8236100837525138 -8.343701987999278" fill="#ff5107" stroke="none" /><path d="M 94.81253420990036 120.34920634021253 l -2.436528065927573 9.557925656474891 a30.86360035031599,30.86360035031599 0 0,0 -0.5136725376991479,-0.13566558590338926 l 2.6006910464382105 -9.51456872126792" fill="#ff6409" stroke="none" /><path d="M 93.42475214034765 119.94407469862007 l -4.225853562541663 12.817880164477446 a34.496514003362144,34.496514003362144 0 0,0 -0.5623428976907473,-0.19077724279893102 l 4.445866193169636 -12.743239934780393" fill="#ff960d" stroke="none" /><path d="M 93.08242187328487 119.8279376855182 l -1.975168262377709 5.661448632374984 a26.996106260042826,26.996106260042826 0 0,0 -0.43744032854542664,-0.15685053843497207 l 2.0723281515528624 -5.626610552900055" fill="#ff2c04" stroke="none" /><path d="M 92.06813273071674 119.44442032107085 l -5.9211727225679445 14.515342642852154 a36.67658950313763,36.67658950313763 0 0,0 -0.5825090175043899,-0.24348881655971596 l 6.170153199569797 -14.411268783272465" fill="#ffb410" stroke="none" /><path d="M 91.7346041902142 119.30500536409082 l -8.173454473093413 19.090263319199675 a41.766403434877965,41.766403434877965 0 0,0 -0.658475841485329,-0.288656458085959 l 8.500850989236486 -18.946742307819264" fill="#fff617" stroke="none" /><path d="M 90.42595943632237 118.69057910512821 l -12.042978814177243 23.510475717192914 a47.415446374563494,47.415446374563494 0 0,0 -0.7232189921209419,-0.37835399523720126 l 12.445888708824679 -23.299692303011" fill="#c3ff1e" stroke="none" /><path d="M 90.10565033884886 118.52300852407294 l -5.976986392335053 11.189393308807885 a33.68569623447421,33.68569623447421 0 0,0 -0.5090986452925975,-0.2776011731122198 l 6.168707849496291 -11.0848514839359" fill="#ff8b0c" stroke="none" /><line stroke="#e1ed5e" stroke-width="0.3" x1="58.666819895761336" x2="56.23545636021788" y1="174.27360380694188" y2="178.64263932499728" /><path d="M 58.180547188652646 175.14741091055294 a86.0,86.0 0 0,1 -31.652253787137756,-30.449443065178592" fill="none" id="id20" stroke="none" /><text fill="#e1ed5e" style="font-size:6.75px; font-family:Arial;" text-anchor="middle"><textPath startOffset="22.20632615414155" xlink:href="#id20">August</textPath></text><path d="M 89.4739219176387 118.17145234162733 l -6.8639953971728564 11.849500284620332 a34.69398005722323,34.69398005722323 0 0,0 -0.5141848226527828,-0.30378945646354233 l 7.066948090854021 -11.72959225586304" fill="#ff990e" stroke="none" /><path d="M 89.1626897886671 117.98757091392108 l -12.10706588563954 20.095088350402687 a44.46046930838568,44.46046930838568 0 0,0 -0.6521309203692377,-0.40059207444616635 l 12.451176005941088 -19.883707809128143" fill="#e6ff1a" stroke="none" /><path d="M 88.54995079064634 117.60387380957326 l -12.9536778841556 19.915627144750683 a44.75773506240004,44.75773506240004 0 0,0 -0.6422208572092698,-0.4256289649253224 l 13.29457344010483 -19.68970015873404" fill="#e3ff1b" stroke="none" /><path d="M 87.95078237400918 117.19931262002967 l -15.249512291937862 21.76748211819744 a47.57763915226499,47.57763915226499 0 0,0 -0.6667047146656399,-0.4756761118058652 l 15.621944334452389 -21.501761744547355" fill="#c1ff1e" stroke="none" /><path d="M 87.07902340077011 116.55440617244103 l -7.71350239200735 9.882569682619492 a33.53647887898883,33.53647887898883 0 0,0 -0.4520118603495411,-0.35910555921751536 l 7.882471745074249 -9.748330209396846" fill="#ff890c" stroke="none" /><path d="M 86.24171649860922 115.8653595955263 l -14.210185810992963 16.38647057882321 a42.689762534744,42.689762534744 0 0,0 -0.5510184089354387,-0.48620968007367243 l 14.490146572834988 -16.13943775697725" fill="#fcff18" stroke="none" /><path d="M 85.97065885151581 115.62618273729859 l -20.150970185584118 22.444585181950238 a51.16323927250056,51.16323927250056 0 0,0 -0.6502615053602627,-0.5939984675951147 l 20.534331240411237 -22.094393947768545" fill="#97ff23" stroke="none" /><path d="M 84.9287848128048 114.62390073753433 l -13.860354616659677 13.448978571632917 a40.31280545958563,40.31280545958563 0 0,0 -0.4789419456048195,-0.5021687151819875 l 14.089803113643454 -13.208402739868431" fill="#ffe415" stroke="none" /><path d="M 84.43433777217949 114.09645910891817 l -11.361780750177749 10.289371271536313 a36.32844489759566,36.32844489759566 0 0,0 -0.41577239224643314,-0.46712469026173975 l 11.53721199207252 -10.092272411533708" fill="#ffaf10" stroke="none" /><path d="M 83.95833913139862 113.55231037782056 l -14.603217911907596 12.337085497455428 a40.116946721539605,40.116946721539605 0 0,0 -0.44110302238387505,-0.5313370061696784 l 14.813416934185007 -12.08388723417199" fill="#ffe115" stroke="none" /><path d="M 83.28015986056508 112.70617746262583 l -15.215164039663948 11.562704714799203 a40.110137547268536,40.110137547268536 0 0,0 -0.4130173969479646,-0.5533042975501814 l 15.411942703306998 -11.299087537739714" fill="#ffe115" stroke="none" /><path d="M 83.06392112726016 112.41649034213515 l -8.290552854375502 6.07812293629578 a31.279924370340407,31.279924370340407 0 0,0 -0.3146167676180284,-0.43697517306132583 l 8.393949414369137 -5.934514157783315" fill="#ff6a09" stroke="none" /><path d="M 82.6465618267979 111.8261652097733 l -14.181973396679522 9.664849046959437 a38.16210000333987,38.16210000333987 0 0,0 -0.36526017103221287,-0.5460143965423596 l 14.346236673122466 -9.419297736211256" fill="#ffc812" stroke="none" /><line stroke="#e1ed5e" stroke-width="0.3" x1="26.63291911575756" x2="22.317208475507996" y1="142.92168965132927" y2="145.44649492493687" /><path d="M 25.769776987707644 143.4266507060508 a86.0,86.0 0 0,1 -11.730757126820373,-40.83630448921669" fill="none" id="id21" stroke="none" /><text fill="#e1ed5e" style="font-size:6.75px; font-family:Arial;" text-anchor="middle"><textPath startOffset="21.46611528233685" xlink:href="#id21">September</textPath></text><path d="M 81.87401531095188 110.60418214915194 l -16.461619928441696 9.630484588060867 a40.07173731125056,40.07173731125056 0 0,0 -0.3431819983873676,-0.5983667410851135 l 16.62495392298144 -9.345698001117446" fill="#ffe015" stroke="none" /><path d="M 81.69416730710424 110.29060199501025 l -16.573724343251047 9.316899354029314 a40.01296800026719,40.01296800026719 0 0,0 -0.33234312129086546,-0.6032993007280532 l 16.73164387399343 -9.030229534903437" fill="#ffe015" stroke="none" /><path d="M 80.73074385275274 108.34839909993369 l -11.272253127893528 4.883700084114279 a33.28471477450263,33.28471477450263 0 0,0 -0.22324378177536341,-0.5276823549699 l 11.354647890861198 -4.68894320347822" fill="#ff860c" stroke="none" /><path d="M 80.58989483394504 108.01547362559985 l -8.171813390072966 3.374580103563983 a29.84117214839445,29.84117214839445 0 0,0 -0.19197449260682575,-0.4764649469365871 l 8.22869049693718 -3.233415788784591" fill="#ff5507" stroke="none" /><path d="M 80.45479744820244 107.68017299344265 l -11.487288054534591 4.513862634604367 a33.3423151285296,33.3423151285296 0 0,0 -0.20530247989117906,-0.5359799911720887 l 11.56328481401928 -4.3154590765991205" fill="#ff870c" stroke="none" /><path d="M 80.20201598880116 107.00284435728193 l -13.938252126204958 4.930169162534685 a35.78450000185549,35.78450000185549 0 0,0 -0.20040882430144116,-0.5824818527112055 l 14.021051781449628 -4.689514606734183" fill="#ffa80f" stroke="none" /><path d="M 79.97269907076064 106.31721596034903 l -9.888048308653305 3.1189892643461326 a31.36829751624479,31.36829751624479 0 0,0 -0.1579964794895784,-0.5163416365870674 l 9.940271560649013 -2.9483206552070174" fill="#ff6b09" stroke="none" /><path d="M 79.86692584326677 105.97154293290107 l -19.743509545745493 5.85599665409923 a41.5936608206449,41.5936608206449 0 0,0 -0.19768350517915867,-0.6881622151681163 l 19.841385687810757 -5.515276963426517" fill="#fff417" stroke="none" /><path d="M 79.58551787078972 104.9243191809786 l -8.515829049701573 2.054162337597463 a29.760075759543696,29.760075759543696 0 0,0 -0.11583675002137644,-0.49902168736267954 l 8.549926365653503 -1.9072719928862092" fill="#ff5407" stroke="none" /><path d="M 79.50377843672027 104.57218783832718 l -11.672951141148769 2.6039397105545103 a32.95986163631708,32.95986163631708 0 0,0 -0.11875902924863614,-0.5548026477330207 l 11.716044209121845 -2.402623243405326" fill="#ff810b" stroke="none" /><path d="M 79.35854240842038 103.8639653848113 l -61.16195460071127 11.449175737519363 a83.224338611576,83.224338611576 0 0,0 -0.25147049375583436,-1.4103800759280813 l 61.349971536806294 -10.394676910858069" fill="#4cd9ff" stroke="none" /><path d="M 79.23777060512086 103.15116336523772 l -11.281807022870279 1.7122832191093524 a32.41100712136,32.41100712136 0 0,0 -0.07896856842248343,-0.5523059836216266 l 11.309609642309361 -1.5178317635073253" fill="#ff7a0b" stroke="none" /><path d="M 79.18660465613746 102.79330883721812 l -15.18117297671465 2.0374236848241387 a36.31728135866197,36.31728135866197 0 0,0 -0.07782013568558885,-0.6203030493286147 l 15.213994621647089 -1.7758028812081155" fill="#ffaf10" stroke="none" /><path d="M 79.1416061653843 102.43462659150553 l -11.95242023400506 1.3951064672230378 a33.03356437241855,33.03356437241855 0 0,0 -0.06106128295972084,-0.565351644604907 l 11.974663818465833 -1.1891585007333485" fill="#ff820c" stroke="none" /><path d="M 79.07016306316243 101.71520430193888 l -21.6550134448492 1.7746326610780463 a42.727607516207684,42.727607516207684 0 0,0 -0.05376240145799133,-0.7335452534674186 l 21.682352404971528 -1.401614271113867" fill="#fcff18" stroke="none" /><path d="M 79.04373962182676 101.35467743843564 l -32.073703062867416 2.073343293233987 a53.14064685995895,53.14064685995895 0 0,0 -0.05115078043984782,-0.9133315459042667 l 32.10464019419479 -1.5209400309942824" fill="#81ff25" stroke="none" /><path d="M 79.0095281055655 100.63252640178507 l -15.51208967165895 0.46744095671252683 a36.519131001109585,36.519131001109585 0 0,0 -0.013525881510696728,-0.628494564871211 l 15.517837615854654 -0.20035657605118692" fill="#ffb210" stroke="none" /><line stroke="#e1ed5e" stroke-width="0.3" x1="15.007084014347285" x2="10.007500721073583" y1="101.09737516637583" y2="101.16192664675087" /><path d="M 14.007167355692545 101.11028546245083 a86.0,86.0 0 0,1 10.666146001902534,-42.60595125391555" fill="none" id="id22" stroke="none" /><text fill="#e1ed5e" style="font-size:6.75px; font-family:Arial;" text-anchor="middle"><textPath startOffset="22.20632615414155" xlink:href="#id22">October</textPath></text><path d="M 79.01574976396665 99.18683210126434 l -29.521914274684143 -1.1440138545515603 a50.544071996615585,50.544071996615585 0 0,0 0.04117269985944516,-0.8690906201916608 l 29.4978479665912 1.6520155813662303" fill="#9eff22" stroke="none" /><path d="M 79.08570108090925 98.10471618934814 l -10.116751046462833 -0.9167945121628681 a31.15820672725451,31.15820672725451 0 0,0 0.05300289061356428,-0.5337318751982513 l 10.09947103016704 1.0908019180655497" fill="#ff6809" stroke="none" /><path d="M 79.16333360222342 97.38593545837743 l -11.541150229955878 -1.447895311549741 a32.63161852295794,32.63161852295794 0 0,0 0.07471708456201503,-0.5567290659770925 l 11.51451714633603 1.646342719591493" fill="#ff7d0b" stroke="none" /><line stroke="#e1ed5e" stroke-width="0.3" x1="26.266209847984243" x2="21.928928074336255" y1="57.711370442889674" y2="55.22380399835377" /><path d="M 25.398753493254645 57.213857153982495 a86.0,86.0 0 0,1 29.58750427330803,-30.492523968695096" fill="none" id="id23" stroke="none" /><text fill="#e1ed5e" style="font-size:6.75px; font-family:Arial;" text-anchor="middle"><textPath startOffset="21.46611528233685" xlink:href="#id23">November</textPath></text><line stroke="#e1ed5e" stroke-width="0.3" x1="56.762969772571076" x2="54.21961505331055" y1="26.818313649435495" y2="22.513508569990535" /><path d="M 56.25429882871897 25.957352633546506 a86.0,86.0 0 0,1 42.265352541879196,-11.944610805530505" fill="none" id="id24" stroke="none" /><text fill="#e1ed5e" style="font-size:6.75px; font-family:Arial;" text-anchor="middle"><textPath startOffset="22.20632615414155" xlink:href="#id24">December</textPath></text></svg>