<?xml version="1.0" encoding="utf-8" ?>
<svg baseProfile="full" height="200mm" version="1.1" viewBox="0,0,200,200" width="200mm" xmlns="http://www.w3.org/2000/svg" xmlns:ev="http://www.w3.org/2001/xml-events" xmlns:xlink="http://www.w3.org/1999/xlink"><defs /><rect fill="#1a1a1a" height="200" width="200" x="0" y="0" /><text alignment-baseline="middle" fill="#e1ed5e" style="dominant-baseline: central; font-size:9.0px; font-family:Arial;" text-anchor="middle" x="100.0" y="100.0">2026</text><line stroke="#e1ed5e" stroke-width="0.3" x1="100.0" x2="100.0" y1="15.0" y2="10.0" /><path d="M 100.0 14.0 a86.0,86.0 0 0,1 42.46469731375804,11.215312516191453" fill="none" id="id25" stroke="none" /><text fill="#e1ed5e" style="font-size:6.75px; font-family:Arial;" text-anchor="middle"><textPath startOffset="22.20632615414155" xlink:href="#id25">January</textPath></text><path d="M 100.72285384407766 79.0124445844662 l 1.004379115735107 -29.16144463005816 a50.17873592738508,50.17873592738508 0 0,0 0.862976690442378,0.037161591610138385 l -1.5061966385668164 29.139835311923825" fill="red" stroke="none" /><path d="M 101.44485096284872 79.0497635885617 l 3.097663735567944 -44.91590430568341 a66.02259410802495,66.02259410802495 0 0,0 1.1331043162038228,0.08795070284806786 l -3.870358241134108 44.855928340646884" fill="red" stroke="none" /><path d="M 103.59715602781102 79.31037775812273 l 3.968331680624661 -22.824498789550802 a44.16690314482398,44.16690314482398 0 0,0 0.7479031544797637,0.1366745210045209 l -4.360629956207326 22.752808787195544" fill="red" stroke="none" /><path d="M 103.95276090670814 79.375362276772 l 8.02977271698643 -41.89758935498755 a63.66011302898324,63.66011302898324 0 0,0 1.0744420206948173,0.21552296152564165 l -8.749781147148374 41.7531624373847" fill="red" stroke="none" /><path d="M 104.66035177308747 79.52364482259891 l 10.097813684013564 -44.36712711326088 a66.50173413707768,66.50173413707768 0 0,0 1.1139873735876034,0.26364481983966 l -10.860024744563692 44.18673638128035" fill="red" stroke="none" /><path d="M 105.01212808612495 79.60689891045804 l 7.0513146139377865 -28.69004328406402 a50.54385928456537,50.54385928456537 0 0,0 0.8430983161399104,0.21492453315114468 l -7.544121818762722 28.564415754744008" fill="red" stroke="none" /><path d="M 106.0581310904928 79.89281104454417 l 6.41799759198082 -21.30160083530342 a43.247446847610874,43.247446847610874 0 0,0 0.7109357735576672,0.22089120550238586 l -6.783718738249205 21.187969494918516" fill="red" stroke="none" /><path d="M 106.40334571778207 80.00007090966166 l 7.589476508323664 -23.704637964141842 a45.88995810927434,45.88995810927434 0 0,0 0.7502290907376074,0.2473387358232583 l -7.996388421303689 23.570485504059345" fill="red" stroke="none" /><path d="M 109.41281617654863 81.2277094730956 l 3.636347159678552 -7.252087372984168 a29.112693260015362,29.112693260015362 0 0,0 0.4460335111645459,0.2284756884540437 l -3.760641158431853 7.188419159217624" fill="red" stroke="none" /><line stroke="#e1ed5e" stroke-width="0.3" x1="143.23703022742887" x2="145.7803849466894" y1="26.81831364943548" y2="22.513508569990506" /><path d="M 143.74570117128098 25.957352633546492 a86.0,86.0 0 0,1 28.547481713284135,27.462654790039103" fill="none" id="id26" stroke="none" /><text fill="#e1ed5e" style="font-size:6.75px; font-family:Arial;" text-anchor="middle"><textPath startOffset="19.985693538727396" xlink:href="#id26">February</textPath></text><path d="M 112.19680574252982 82.90503203632743 l 32.18070310997263 -45.104275687130425 a76.4075205898339,76.4075205898339 0 0,0 1.0640827267757738,0.7731013543185037 l -32.95233115310219 44.54365509799524" fill="red" stroke="none" /><path d="M 114.16331599549186 84.49514656593476 l 30.73178342856424 -33.64267223713638 a66.56612676051765,66.56612676051765 0 0,0 0.8393421701189498,0.7800770723113114 l -31.30633348247804 33.108690578750426" fill="red" stroke="none" /><path d="M 114.42810811169701 84.74124197986012 l 28.960738469826612 -30.628055804307685 a63.152131322976786,63.152131322976786 0 0,0 0.7834375433916435,0.753666296026009 l -29.483659256830677 30.125006421519373" fill="red" stroke="none" /><line stroke="#e1ed5e" stroke-width="0.3" x1="172.23445277983987" x2="176.4835382374775" y1="55.19839476539836" y2="52.563006222186495" /><path d="M 173.08426987136738 54.67131705675599 a86.0,86.0 0 0,1 12.851231095245387,41.99856678651699" fill="none" id="id27" stroke="none" /><text fill="#e1ed5e" style="font-size:6.75px; font-family:Arial;" text-anchor="middle"><textPath startOffset="22.20632615414155" xlink:href="#id27">March</textPath></text><path d="M 118.03404312379186 89.2402003453031 l 25.749048225789917 -15.362866679802764 a50.98384827128514,50.98384827128514 0 0,0 0.44317182191408716,0.7575242999079156 l -26.00967972217433 14.917362967540953" fill="red" stroke="none" /><path d="M 118.56541770881063 90.18545643968196 l 21.897890410023557 -11.576243674078658 a45.769477628949865,45.769477628949865 0 0,0 0.36221216338669293,0.6996786098470391 l -22.093912006570367 11.197592341971273" fill="red" stroke="none" /><path d="M 118.89224826269711 90.83032412892265 l 20.66290389963507 -10.029093873860834 a43.968202400193775,43.968202400193775 0 0,0 0.32461473874558444,0.6837214268778606 l -20.832476832222408 9.671930031342434" fill="red" stroke="none" /><path d="M 119.34039704204932 91.81776055985345 l 37.71760410933576 -15.956987194226674 a61.95415851980475,61.95415851980475 0 0,0 0.40706334680703715,0.9857361822682815 l -37.986689143029 15.30537644150509" fill="red" stroke="none" /><path d="M 119.47837535516314 92.15188598940014 l 22.820131395719233 -9.194554970058165 a45.602809555319325,45.602809555319325 0 0,0 0.2870945507966495,0.7306243168778676 l -22.975019496397582 8.800381648284514" fill="red" stroke="none" /><path d="M 119.7369772167798 92.82701384747503 l 27.006901837952697 -9.815086209935966 a49.735146844818594,49.735146844818594 0 0,0 0.28549612988640966,0.8071360045111928 l -27.171851048648918 9.348752578998159" fill="red" stroke="none" /><path d="M 120.18372546131832 94.20196356495316 l 35.39192528060672 -10.166788716814535 a57.82325308660815,57.82325308660815 0 0,0 0.2665740889368118,0.9590088309338485 l -35.56168614010989 9.556068582461736" fill="red" stroke="none" /><path d="M 120.37134235888165 94.90015583598534 l 39.822166555016665 -9.969242091475515 a62.05107473640532,62.05107473640532 0 0,0 0.2504712307719853,1.0383649549418454 l -39.987870586049475 9.282291904874263" fill="red" stroke="none" /><path d="M 120.53481517161879 95.60439243477599 l 61.60444551485638 -13.186822695672053 a84.0,84.0 0 0,0 0.2904828163400124,1.4164973753463528 l -61.822307627111385 12.124449664162288" fill="red" stroke="none" /><path d="M 120.73433829027371 96.67025291283417 l 35.01383790190388 -5.622905497739032 a56.462457766732754,56.462457766732754 0 0,0 0.14584550360846102,0.9609396439216601 l -35.10543929895164 5.019366741425289" fill="red" stroke="none" /><line stroke="#e1ed5e" stroke-width="0.3" x1="184.98032266829074" x2="189.97916517819016" y1="98.17113171792111" y2="98.06355123074" /><path d="M 185.9800911702706 98.14961562048488 a86.0,86.0 0 0,1 -9.607161424134198,41.387399972396054" fill="none" id="id28" stroke="none" /><text fill="#e1ed5e" style="font-size:6.75px; font-family:Arial;" text-anchor="middle"><textPath startOffset="21.466115282336823" xlink:href="#id28">April</textPath></text><line stroke="#e1ed5e" stroke-width="0.3" x1="174.80103733775053" x2="179.2010983576182" y1="140.37084112569926" y2="142.7455964860345" /><path d="M 175.68104954172406 140.8457921977663 a86.0,86.0 0 0,1 -30.038265399797805,32.042727171017184" fill="none" id="id29" stroke="none" /><text fill="#e1ed5e" style="font-size:6.75px; font-family:Arial;" text-anchor="middle"><textPath startOffset="22.206326154141568" xlink:href="#id29">May</textPath></text><line stroke="#e1ed5e" stroke-width="0.3" x1="143.8653032363475" x2="146.44561519142675" y1="172.8068346515853" y2="177.08958963109032" /><path d="M 144.38136562736335 173.6633856474863 a86.0,86.0 0 0,1 -40.68145358897372,12.25698825130547" fill="none" id="id30" stroke="none" /><text fill="#e1ed5e" style="font-size:6.75px; font-family:Arial;" text-anchor="middle"><textPath startOffset="21.466115282336833" xlink:href="#id30">June</textPath></text><line stroke="#e1ed5e" stroke-width="0.3" x1="102.19456741930631" x2="102.32365962044197" y1="184.97166512339345" y2="189.96999836594603" /><path d="M 102.22038585953345 185.97133177190398 a86.0,86.0 0 0,1 -42.740103519485714,-10.115201625700543" fill="none" id="id31" stroke="none" /><text fill="#e1ed5e" style="font-size:6.75px; font-family:Arial;" text-anchor="middle"><textPath startOffset="22.20632615414155" xlink:href="#id31">July</textPath></text><line stroke="#e1ed5e" stroke-width="0.3" x1="58.666819895761336" x2="56.23545636021788" y1="174.27360380694188" y2="178.64263932499728" /><path d="M 58.180547188652646 175.14741091055294 a86.0,86.0 0 0,1 -31.652253787137756,-30.449443065178592" fill="none" id="id32" stroke="none" /><text fill="#e1ed5e" style="font-size:6.75px; font-family:Arial;" text-anchor="middle"><textPath startOffset="22.20632615414155" xlink:href="#id32">August</textPath></text><line stroke="#e1ed5e" stroke-width="0.3" x1="26.63291911575756" x2="22.317208475507996" y1="142.92168965132927" y2="145.44649492493687" /><path d="M 25.769776987707644 143.4266507060508 a86.0,86.0 0 0,1 -11.730757126820373,-40.83630448921669" fill="none" id="id33" stroke="none" /><text fill="#e1ed5e" style="font-size:6.75px; font-family:Arial;" text-anchor="middle"><textPath startOffset="21.46611528233685" xlink:href="#id33">September</textPath></text><line stroke="#e1ed5e" stroke-width="0.3" x1="15.007084014347285" x2="10.007500721073583" y1="101.09737516637583" y2="101.16192664675087" /><path d="M 14.007167355692545 101.11028546245083 a86.0,86.0 0 0,1 10.666146001902534,-42.60595125391555" fill="none" id="id34" stroke="none" /><text fill="#e1ed5e" style="font-size:6.75px; font-family:Arial;" text-anchor="middle"><textPath startOffset="22.20632615414155" xlink:href="#id34">October</textPath></text><line stroke="#e1ed5e" stroke-width="0.3" x1="26.266209847984243" x2="21.928928074336255" y1="57.711370442889674" y2="55.22380399835377" /><path d="M 25.398753493254645 57.213857153982495 a86.0,86.0 0 0,1 29.58750427330803,-30.492523968695096" fill="none" id="id35" stroke="none" /><text fill="#e1ed5e" style="font-size:6.75px; font-family:Arial;" text-anchor="middle"><textPath startOffset="21.46611528233685" xlink:href="#id35">November</textPath></text><line stroke="#e1ed5e" stroke-width="0.3" x1="56.762969772571076" x2="54.21961505331055" y1="26.818313649435495" y2="22.513508569990535" /><path d="M 56.25429882871897 25.957352633546506 a86.0,86.0 0 0,1 42.265352541879196,-11.944610805530505" fill="none" id="id36" stroke="none" /><text fill="#e1ed5e" style="font-size:6.75px; font-family:Arial;" text-anchor="middle"><textPath startOffset="22.20632615414155" xlink:href="#id36">December</textPath></text></svg>