<?xml version="1.0" encoding="utf-8" ?>
<svg baseProfile="full" height="200mm" version="1.1" viewBox="0,0,200,200" width="200mm" xmlns="http://www.w3.org/2000/svg" xmlns:ev="http://www.w3.org/2001/xml-events" xmlns:xlink="http://www.w3.org/1999/xlink"><defs /><rect fill="#1a1a1a" height="200" width="200" x="0" y="0" /><text alignment-baseline="middle" fill="#e1ed5e" style="dominant-baseline: central; font-size:9.0px; font-family:Arial;" text-anchor="middle" x="100.0" y="100.0">2026</text><line stroke="#e1ed5e" stroke-width="0.3" x1="100.0" x2="100.0" y1="15.0" y2="10.0" /><path d="M 100.0 14.0 a86.0,86.0 0 0,1 42.46469731375804,11.215312516191453" fill="none" id="id25" stroke="none" /><text fill="#e1ed5e" style="font-size:6.75px; font-family:Arial;" text-anchor="middle"><textPath startOffset="22.20632615414155" xlink:href="#id25">January</textPath></text><path d="M 100.72285384407766 79.0124445844662 l 1.1420089478416677 -33.157430473991404 a54.17709119369153,54.17709119369153 0 0,0 0.9317406266229005,0.04012271135085382 l -1.7125904068538997 33.132860036116355" fill="red" stroke="none" /><path d="M 101.44485096284872 79.0497635885617 l 3.522135862845069 -51.07072002383096 a72.19202950449287,72.19202950449287 0 0,0 1.2389864611077406,0.09616919511765816 l -4.400712513315151 51.00252556652484" fill="red" stroke="none" /><path d="M 103.59715602781102 79.31037775812273 l 4.51211122999112 -25.952134447350332 a47.341458390247865,47.341458390247865 0 0,0 0.8016596941750548,0.14649818503068088 l -4.958166045269076 25.870620780968913" fill="red" stroke="none" /><path d="M 103.95276090670814 79.375362276772 l 9.130090568661227 -47.63880609103663 a69.50581820329748,69.50581820329748 0 0,0 1.1731046051771412,0.23531374780339098 l -9.948761583305494 47.47458838715603" fill="red" stroke="none" /><path d="M 104.66035177308747 79.52364482259891 l 11.481514699099836 -50.446744022837265 a72.73682597813006,72.73682597813006 0 0,0 1.2184329745064348,0.2883637190751232 l -12.348171360568795 50.241634391621275" fill="red" stroke="none" /><path d="M 105.01212808612495 79.60689891045804 l 8.017554583728979 -32.621433113317586 a54.59224731794118,54.59224731794118 0 0,0 0.9106275705801703,0.23213924370953845 l -8.577891042994175 32.478590873439174" fill="red" stroke="none" /><path d="M 106.0581310904928 79.89281104454417 l 7.297454280402839 -24.220554147487782 a46.29600921461639,46.29600921461639 0 0,0 0.7610504555240453,0.23646208113511136 l -7.713290108637603 24.09135193147015" fill="red" stroke="none" /><path d="M 106.40334571778207 80.00007090966166 l 8.629460674912766 -26.952878884368307 a49.300623167967395,49.300623167967395 0 0,0 0.805988133700793,0.2657216156229069 l -9.092131630855976 26.800343544486164" fill="red" stroke="none" /><path d="M 109.41281617654863 81.2277094730956 l 4.1346349488481176 -8.245839186347402 a30.22437369404225,30.22437369404225 0 0,0 0.4630654883455427,0.237200128691733 l -4.2759609247824155 8.173446532343169" fill="red" stroke="none" /><line stroke="#e1ed5e" stroke-width="0.3" x1="143.23703022742887" x2="145.7803849466894" y1="26.81831364943548" y2="22.513508569990506" /><path d="M 143.74570117128098 25.957352633546492 a86.0,86.0 0 0,1 28.547481713284135,27.462654790039103" fill="none" id="id26" stroke="none" /><text fill="#e1ed5e" style="font-size:6.75px; font-family:Arial;" text-anchor="middle"><textPath startOffset="19.985693538727396" xlink:href="#id26">February</textPath></text><path d="M 112.19680574252982 82.90503203632743 l 36.590417227589455 -51.28490389101772 a84.0,84.0 0 0,0 1.1698187345848452,0.8499230607333006 l -37.46778127852809 50.647461595467746" fill="red" stroke="none" /><path d="M 114.16331599549186 84.49514656593476 l 34.94295242575394 -38.252719637638386 a72.81004230749352,72.81004230749352 0 0,0 0.9180726277899021,0.8532484523612168 l -35.596232937338684 37.64556659920253" fill="red" stroke="none" /><path d="M 114.42810811169701 84.74124197986012 l 32.929221596207626 -34.8250110297377 a68.92822788455149,68.92822788455149 0 0,0 0.8550932548584486,0.8225990336843296 l -33.52379809467849 34.253028909291075" fill="red" stroke="none" /><line stroke="#e1ed5e" stroke-width="0.3" x1="172.23445277983987" x2="176.4835382374775" y1="55.19839476539836" y2="52.563006222186495" /><path d="M 173.08426987136738 54.67131705675599 a86.0,86.0 0 0,1 12.851231095245387,41.99856678651699" fill="none" id="id27" stroke="none" /><text fill="#e1ed5e" style="font-size:6.75px; font-family:Arial;" text-anchor="middle"><textPath startOffset="22.20632615414155" xlink:href="#id27">March</textPath></text><line stroke="#e1ed5e" stroke-width="0.3" x1="184.98032266829074" x2="189.97916517819016" y1="98.17113171792111" y2="98.06355123074" /><path d="M 185.9800911702706 98.14961562048488 a86.0,86.0 0 0,1 -9.607161424134198,41.387399972396054" fill="none" id="id28" stroke="none" /><text fill="#e1ed5e" style="font-size:6.75px; font-family:Arial;" text-anchor="middle"><textPath startOffset="21.466115282336823" xlink:href="#id28">April</textPath></text><line stroke="#e1ed5e" stroke-width="0.3" x1="174.80103733775053" x2="179.2010983576182" y1="140.37084112569926" y2="142.7455964860345" /><path d="M 175.68104954172406 140.8457921977663 a86.0,86.0 0 0,1 -30.038265399797805,32.042727171017184" fill="none" id="id29" stroke="none" /><text fill="#e1ed5e" style="font-size:6.75px; font-family:Arial;" text-anchor="middle"><textPath startOffset="22.206326154141568" xlink:href="#id29">May</textPath></text><line stroke="#e1ed5e" stroke-width="0.3" x1="143.8653032363475" x2="146.44561519142675" y1="172.8068346515853" y2="177.08958963109032" /><path d="M 144.38136562736335 173.6633856474863 a86.0,86.0 0 0,1 -40.68145358897372,12.25698825130547" fill="none" id="id30" stroke="none" /><text fill="#e1ed5e" style="font-size:6.75px; font-family:Arial;" text-anchor="middle"><textPath startOffset="21.466115282336833" xlink:href="#id30">June</textPath></text><line stroke="#e1ed5e" stroke-width="0.3" x1="102.19456741930631" x2="102.32365962044197" y1="184.97166512339345" y2="189.96999836594603" /><path d="M 102.22038585953345 185.97133177190398 a86.0,86.0 0 0,1 -42.740103519485714,-10.115201625700543" fill="none" id="id31" stroke="none" /><text fill="#e1ed5e" style="font-size:6.75px; font-family:Arial;" text-anchor="middle"><textPath startOffset="22.20632615414155" xlink:href="#id31">July</textPath></text><line stroke="#e1ed5e" stroke-width="0.3" x1="58.666819895761336" x2="56.23545636021788" y1="174.27360380694188" y2="178.64263932499728" /><path d="M 58.180547188652646 175.14741091055294 a86.0,86.0 0 0,1 -31.652253787137756,-30.449443065178592" fill="none" id="id32" stroke="none" /><text fill="#e1ed5e" style="font-size:6.75px; font-family:Arial;" text-anchor="middle"><textPath startOffset="22.20632615414155" xlink:href="#id32">August</textPath></text><line stroke="#e1ed5e" stroke-width="0.3" x1="26.63291911575756" x2="22.317208475507996" y1="142.92168965132927" y2="145.44649492493687" /><path d="M 25.769776987707644 143.4266507060508 a86.0,86.0 0 0,1 -11.730757126820373,-40.83630448921669" fill="none" id="id33" stroke="none" /><text fill="#e1ed5e" style="font-size:6.75px; font-family:Arial;" text-anchor="middle"><textPath startOffset="21.46611528233685" xlink:href="#id33">September</textPath></text><line stroke="#e1ed5e" stroke-width="0.3" x1="15.007084014347285" x2="10.007500721073583" y1="101.09737516637583" y2="101.16192664675087" /><path d="M 14.007167355692545 101.11028546245083 a86.0,86.0 0 0,1 10.666146001902534,-42.60595125391555" fill="none" id="id34" stroke="none" /><text fill="#e1ed5e" style="font-size:6.75px; font-family:Arial;" text-anchor="middle"><textPath startOffset="22.20632615414155" xlink:href="#id34">October</textPath></text><line stroke="#e1ed5e" stroke-width="0.3" x1="26.266209847984243" x2="21.928928074336255" y1="57.711370442889674" y2="55.22380399835377" /><path d="M 25.398753493254645 57.213857153982495 a86.0,86.0 0 0,1 29.58750427330803,-30.492523968695096" fill="none" id="id35" stroke="none" /><text fill="#e1ed5e" style="font-size:6.75px; font-family:Arial;" text-anchor="middle"><textPath startOffset="21.46611528233685" xlink:href="#id35">November</textPath></text><line stroke="#e1ed5e" stroke-width="0.3" x1="56.762969772571076" x2="54.21961505331055" y1="26.818313649435495" y2="22.513508569990535" /><path d="M 56.25429882871897 25.957352633546506 a86.0,86.0 0 0,1 42.265352541879196,-11.944610805530505" fill="none" id="id36" stroke="none" /><text fill="#e1ed5e" style="font-size:6.75px; font-family:Arial;" text-anchor="middle"><textPath startOffset="22.20632615414155" xlink:href="#id36">December</textPath></text></svg>