<?xml version="1.0" encoding="utf-8" ?>
<svg baseProfile="full" height="200mm" version="1.1" viewBox="0,0,200,200" width="200mm" xmlns="http://www.w3.org/2000/svg" xmlns:ev="http://www.w3.org/2001/xml-events" xmlns:xlink="http://www.w3.org/1999/xlink"><defs /><rect fill="#1a1a1a" height="200" width="200" x="0" y="0" /><text alignment-baseline="middle" fill="#e1ed5e" style="dominant-baseline: central; font-size:9.0px; font-family:Arial;" text-anchor="middle" x="100.0" y="100.0">2026</text><line stroke="#e1ed5e" stroke-width="0.3" x1="100.0" x2="100.0" y1="15.0" y2="10.0" /><path d="M 100.0 14.0 a86.0,86.0 0 0,1 42.46469731375804,11.215312516191453" fill="none" id="id25" stroke="none" /><text fill="#e1ed5e" style="font-size:6.75px; font-family:Arial;" text-anchor="middle"><textPath startOffset="22.20632615414155" xlink:href="#id25">January</textPath></text><path d="M 100.72285384407766 79.0124445844662 l 0.70581538429764 -20.492855661554064 a41.50500691348334,41.50500691348334 0 0,0 0.7138054165975564,0.03073796276827047 l -1.0584616332845278 20.477669972261598" fill="#ffd914" stroke="none" /><path d="M 101.44485096284872 79.0497635885617 l 2.1768460591143786 -31.564113353142524 a52.63908833286939,52.63908833286939 0 0,0 0.9034116122946882,0.07012212832144178 l -2.719847860771408 31.521965962632617" fill="#97ff23" stroke="none" /><path d="M 103.59715602781102 79.31037775812273 l 2.7886975209859917 -16.03964293179968 a37.28026348813756,37.28026348813756 0 0,0 0.6312877896643382,0.11536380847115507 l -3.064380431753231 15.989263641977786" fill="#ff9f0e" stroke="none" /><path d="M 103.95276090670814 79.375362276772 l 5.642826525633602 -29.443028701459482 a50.97888307314602,50.97888307314602 0 0,0 0.8604108842367015,0.17259032905253574 l -6.148803819337429 29.34153441632974" fill="#abff21" stroke="none" /><path d="M 104.66035177308747 79.52364482259891 l 7.096117526031589 -31.17846675924655 a52.975798244933536,52.975798244933536 0 0,0 0.8874109993723779,0.2100215124519673 l -7.631752212366491 31.051699334653712" fill="#93ff23" stroke="none" /><path d="M 105.01212808612495 79.60689891045804 l 4.955226822291542 -20.161584016247335 a41.76159297608345,41.76159297608345 0 0,0 0.6966054673274249,0.17758024418950025 l -5.301541178303991 20.07330077588897" fill="#ffdd14" stroke="none" /><path d="M 106.0581310904928 79.89281104454417 l 4.510170876551743 -14.96944464911586 a36.63412659660395,36.63412659660395 0 0,0 0.602220779005476,0.1871129274975431 l -4.767177028267937 14.889591586735797" fill="#ff960d" stroke="none" /><path d="M 106.40334571778207 80.00007090966166 l 5.333413642735642 -16.658150186696865 a38.49111971050074,38.49111971050074 0 0,0 0.6292696470351605,0.20746030900588022 l -5.61936611201322 16.56387615343175" fill="#ffb010" stroke="none" /><path d="M 109.41281617654863 81.2277094730956 l 2.555399378321061 -5.096317472089756 a26.701097943295746,26.701097943295746 0 0,0 0.40908563014861216,0.20954954873419798 l -2.642745496058429 5.051575398043058" fill="#ff0000" stroke="none" /><line stroke="#e1ed5e" stroke-width="0.3" x1="143.23703022742887" x2="145.7803849466894" y1="26.81831364943548" y2="22.513508569990506" /><path d="M 143.74570117128098 25.957352633546492 a86.0,86.0 0 0,1 28.547481713284135,27.462654790039103" fill="none" id="id26" stroke="none" /><text fill="#e1ed5e" style="font-size:6.75px; font-family:Arial;" text-anchor="middle"><textPath startOffset="19.985693538727396" xlink:href="#id26">February</textPath></text><path d="M 112.19680574252982 82.90503203632743 l 22.614603367085586 -31.696489083485528 a59.93697093598982,59.93697093598982 0 0,0 0.834707041609384,0.6064501641547542 l -23.156855725048757 31.3025196845141" fill="#44ff2d" stroke="none" /><path d="M 114.16331599549186 84.49514656593476 l 21.596392428877078 -23.64198464687766 a53.021049389194886,53.021049389194886 0 0,0 0.6685502795801361,0.6213446236281355 l -22.00015059225206 23.266735437174887" fill="#92ff23" stroke="none" /><path d="M 114.42810811169701 84.74124197986012 l 20.35181181327467 -21.523499084292403 a50.62190501832187,50.62190501832187 0 0,0 0.6279930713111171,0.6041288370430364 l -20.719288128198205 21.169987160487068" fill="#afff20" stroke="none" /><line stroke="#e1ed5e" stroke-width="0.3" x1="172.23445277983987" x2="176.4835382374775" y1="55.19839476539836" y2="52.563006222186495" /><path d="M 173.08426987136738 54.67131705675599 a86.0,86.0 0 0,1 12.851231095245387,41.99856678651699" fill="none" id="id27" stroke="none" /><text fill="#e1ed5e" style="font-size:6.75px; font-family:Arial;" text-anchor="middle"><textPath startOffset="22.20632615414155" xlink:href="#id27">March</textPath></text><path d="M 118.03404312379186 89.2402003453031 l 18.094834992146108 -10.796070407718636 a42.070789962443584,42.070789962443584 0 0,0 0.3656959854778542,0.6250929812770233 l -18.27799065209429 10.482998014087718" fill="#ffe115" stroke="none" /><path d="M 118.56541770881063 90.18545643968196 l 15.38848000015035 -8.135066479914618 a38.40645349712737,38.40645349712737 0 0,0 0.3039423941427252,0.5871199625627361 l -15.526231827453191 7.868973795091538" fill="#ffaf10" stroke="none" /><path d="M 118.89224826269711 90.83032412892265 l 14.520608033503297 -7.047825503176942 a37.1406289216335,37.1406289216335 0 0,0 0.27420715189824596,0.5775501934399866 l -14.639773379243298 6.796832894096416" fill="#ff9d0e" stroke="none" /><path d="M 119.34039704204932 91.81776055985345 l 26.505594174698285 -11.213581477630026 a49.78004399074551,49.78004399074551 0 0,0 0.32707459507495007,0.7920370752981577 l -26.694690456659433 10.755669831878565" fill="#baff1f" stroke="none" /><path d="M 119.47837535516314 92.15188598940014 l 16.036573798135596 -6.46136329197525 a38.289329506199316,38.289329506199316 0 0,0 0.24105220625830837,0.6134515721063792 l -16.145419554275602 6.184362714973086" fill="#ffad10" stroke="none" /><path d="M 119.7369772167798 92.82701384747503 l 18.97877654046181 -6.897434182619448 a41.193280002920545,41.193280002920545 0 0,0 0.2364629997948072,0.6685127428699236 l -19.094692621066425 6.56972381332291" fill="#ffd513" stroke="none" /><path d="M 120.18372546131832 94.20196356495316 l 24.871251255241173 -7.144588903542988 a46.87709971387762,46.87709971387762 0 0,0 0.2161106385611004,0.7774649504212504 l -24.990548664368635 6.7154126497027855" fill="#deff1b" stroke="none" /><path d="M 120.37134235888165 94.90015583598534 l 27.984550206444787 -7.005765380536624 a49.848150700246876,49.848150700246876 0 0,0 0.20121372128745715,0.8341607776444889 l -28.100996727993063 6.523019371232729" fill="#b9ff1f" stroke="none" /><path d="M 120.53481517161879 95.60439243477599 l 43.29178564578903 -9.266881581660986 a65.27249483200006,65.27249483200006 0 0,0 0.22572069200402717,1.1006942572837675 l -43.44488563370805 8.520311668213807" fill="#34ff5a" stroke="none" /><path d="M 120.73433829027371 96.67025291283417 l 24.605554881913136 -3.951429437928191 a45.92081711440788,45.92081711440788 0 0,0 0.11861589032896964,0.7815305141128687 l -24.669926665681405 3.5272998114232403" fill="#eaff1a" stroke="none" /><path d="M 120.78858239683441 97.02765380044208 l 15.81312368196776 -2.2609563837500217 a36.97394141564409,36.97394141564409 0 0,0 0.08465976351739714,0.6308135728952827 l -15.849699444542994 1.9884244687900747" fill="#ff9a0e" stroke="none" /><path d="M 120.87857604477298 97.74499172005257 l 14.310404703410438 -1.5456073741038525 a35.39363001227542,35.39363001227542 0 0,0 0.060207723646581626,0.6062835606004457 l -14.334889552739249 1.2990482827989718" fill="#ff840c" stroke="none" /><path d="M 120.94382443527127 98.46500227214037 l 62.831473305813795 -4.6049931835789 a84.0,84.0 0 0,0 0.09327763598233796,1.442963742987859 l -62.90143153280055 3.5227703763380056" fill="#4dd2ff" stroke="none" /><line stroke="#e1ed5e" stroke-width="0.3" x1="184.98032266829074" x2="189.97916517819016" y1="98.17113171792111" y2="98.06355123074" /><path d="M 185.9800911702706 98.14961562048488 a86.0,86.0 0 0,1 -9.607161424134198,41.387399972396054" fill="none" id="id28" stroke="none" /><text fill="#e1ed5e" style="font-size:6.75px; font-family:Arial;" text-anchor="middle"><textPath startOffset="21.466115282336823" xlink:href="#id28">April</textPath></text><line stroke="#e1ed5e" stroke-width="0.3" x1="174.80103733775053" x2="179.2010983576182" y1="140.37084112569926" y2="142.7455964860345" /><path d="M 175.68104954172406 140.8457921977663 a86.0,86.0 0 0,1 -30.038265399797805,32.042727171017184" fill="none" id="id29" stroke="none" /><text fill="#e1ed5e" style="font-size:6.75px; font-family:Arial;" text-anchor="middle"><textPath startOffset="22.206326154141568" xlink:href="#id29">May</textPath></text><line stroke="#e1ed5e" stroke-width="0.3" x1="143.8653032363475" x2="146.44561519142675" y1="172.8068346515853" y2="177.08958963109032" /><path d="M 144.38136562736335 173.6633856474863 a86.0,86.0 0 0,1 -40.68145358897372,12.25698825130547" fill="none" id="id30" stroke="none" /><text fill="#e1ed5e" style="font-size:6.75px; font-family:Arial;" text-anchor="middle"><textPath startOffset="21.466115282336833" xlink:href="#id30">June</textPath></text><line stroke="#e1ed5e" stroke-width="0.3" x1="102.19456741930631" x2="102.32365962044197" y1="184.97166512339345" y2="189.96999836594603" /><path d="M 102.22038585953345 185.97133177190398 a86.0,86.0 0 0,1 -42.740103519485714,-10.115201625700543" fill="none" id="id31" stroke="none" /><text fill="#e1ed5e" style="font-size:6.75px; font-family:Arial;" text-anchor="middle"><textPath startOffset="22.20632615414155" xlink:href="#id31">July</textPath></text><line stroke="#e1ed5e" stroke-width="0.3" x1="58.666819895761336" x2="56.23545636021788" y1="174.27360380694188" y2="178.64263932499728" /><path d="M 58.180547188652646 175.14741091055294 a86.0,86.0 0 0,1 -31.652253787137756,-30.449443065178592" fill="none" id="id32" stroke="none" /><text fill="#e1ed5e" style="font-size:6.75px; font-family:Arial;" text-anchor="middle"><textPath startOffset="22.20632615414155" xlink:href="#id32">August</textPath></text><line stroke="#e1ed5e" stroke-width="0.3" x1="26.63291911575756" x2="22.317208475507996" y1="142.92168965132927" y2="145.44649492493687" /><path d="M 25.769776987707644 143.4266507060508 a86.0,86.0 0 0,1 -11.730757126820373,-40.83630448921669" fill="none" id="id33" stroke="none" /><text fill="#e1ed5e" style="font-size:6.75px; font-family:Arial;" text-anchor="middle"><textPath startOffset="21.46611528233685" xlink:href="#id33">September</textPath></text><line stroke="#e1ed5e" stroke-width="0.3" x1="15.007084014347285" x2="10.007500721073583" y1="101.09737516637583" y2="101.16192664675087" /><path d="M 14.007167355692545 101.11028546245083 a86.0,86.0 0 0,1 10.666146001902534,-42.60595125391555" fill="none" id="id34" stroke="none" /><text fill="#e1ed5e" style="font-size:6.75px; font-family:Arial;" text-anchor="middle"><textPath startOffset="22.20632615414155" xlink:href="#id34">October</textPath></text><line stroke="#e1ed5e" stroke-width="0.3" x1="26.266209847984243" x2="21.928928074336255" y1="57.711370442889674" y2="55.22380399835377" /><path d="M 25.398753493254645 57.213857153982495 a86.0,86.0 0 0,1 29.58750427330803,-30.492523968695096" fill="none" id="id35" stroke="none" /><text fill="#e1ed5e" style="font-size:6.75px; font-family:Arial;" text-anchor="middle"><textPath startOffset="21.46611528233685" xlink:href="#id35">November</textPath></text><line stroke="#e1ed5e" stroke-width="0.3" x1="56.762969772571076" x2="54.21961505331055" y1="26.818313649435495" y2="22.513508569990535" /><path d="M 56.25429882871897 25.957352633546506 a86.0,86.0 0 0,1 42.265352541879196,-11.944610805530505" fill="none" id="id36" stroke="none" /><text fill="#e1ed5e" style="font-size:6.75px; font-family:Arial;" text-anchor="middle"><textPath startOffset="22.20632615414155" xlink:href="#id36">December</textPath></text></svg>