<?xml version="1.0" encoding="utf-8" ?>
<svg baseProfile="full" height="200mm" version="1.1" viewBox="0,0,200,200" width="200mm" xmlns="http://www.w3.org/2000/svg" xmlns:ev="http://www.w3.org/2001/xml-events" xmlns:xlink="http://www.w3.org/1999/xlink"><defs /><rect fill="#1a1a1a" height="200" width="200" x="0" y="0" /><text alignment-baseline="middle" fill="#e1ed5e" style="dominant-baseline: central; font-size:9.0px; font-family:Arial;" text-anchor="middle" x="100.0" y="100.0">2024</text><line stroke="#e1ed5e" stroke-width="0.3" x1="100.0" x2="100.0" y1="15.0" y2="10.0" /><path d="M 100.0 14.0 a86.0,86.0 0 0,1 42.35913384403234,11.155469271406648" fill="none" id="id1" stroke="none" /><text fill="#e1ed5e" style="font-size:6.75px; font-family:Arial;" text-anchor="middle"><textPath startOffset="22.145653131862478" xlink:href="#id1">January</textPath></text><line stroke="#e1ed5e" stroke-width="0.3" x1="143.13028292997686" x2="145.6673583964461" y1="26.7553504044142" y2="22.446841604673864" /><path d="M 143.63769802327073 25.89364864446614 a86.0,86.0 0 0,1 29.32050498858742,28.57503671076993" fill="none" id="id2" stroke="none" /><text fill="#e1ed5e" style="font-size:6.75px; font-family:Arial;" text-anchor="middle"><textPath startOffset="20.669276256404974" xlink:href="#id2">February</textPath></text><path d="M 115.16444852881244 85.47280134310134 l 12.577728124412104 -12.049179023465953 a38.41786324183191,38.41786324183191 0 0,0 0.4521309895493777,0.48014744278586524 l -12.782714947697741 11.831490120735591" fill="#ffc011" stroke="none" /><path d="M 116.35404254752997 86.82634096563983 l 9.860364765510742 -7.942811876496938 a33.66155811163644,33.66155811163644 0 0,0 0.3586295498325235,0.45311672071031933 l -9.995260745984824 7.77237521187194" fill="#ff7e0b" stroke="none" /><path d="M 117.01052211995028 87.68569379921539 l 5.374201438376221 -3.8905073947874382 a27.63461294192365,27.63461294192365 0 0,0 0.27487873340649505,0.38665136254311616 l -5.440195270312676 3.797678805534818" fill="#ff2603" stroke="none" /><path d="M 117.42321728460499 88.27688183743584 l 12.919000250277213 -8.692479925049003 a36.57111989273869,36.57111989273869 0 0,0 0.34598989352320564,0.5238727969243107 l -13.066314582721143 8.469427249785634" fill="#ffa60f" stroke="none" /><path d="M 117.81537515405839 88.88188828441811 l 13.121197919195517 -8.18859794118026 a36.46670524310211,36.46670524310211 0 0,0 0.3268667694054268,0.5339123028323808 l -13.259832653056346 7.962148522223324" fill="#ffa50f" stroke="none" /><line stroke="#e1ed5e" stroke-width="0.3" x1="172.87174338648825" x2="177.1583165268699" y1="56.24261187166439" y2="53.66864786411523" /><path d="M 173.72905801456457 55.72781907015455 a86.0,86.0 0 0,1 12.242430191666344,42.057860355516425" fill="none" id="id3" stroke="none" /><text fill="#e1ed5e" style="font-size:6.75px; font-family:Arial;" text-anchor="middle"><textPath startOffset="22.145653131862474" xlink:href="#id3">March</textPath></text><path d="M 118.36410011445183 89.81374322990088 l 6.857658566767396 -3.8038276075281434 a28.84197586620563,28.84197586620563 0 0,0 0.2364419176975902,0.4350264975553702 l -6.921945834080328 3.6855462764981697" fill="#ff3805" stroke="none" /><path d="M 118.8641267826498 90.77261029715802 l 8.382376105093115 -4.100240199224316 a30.331462846658667,30.331462846658667 0 0,0 0.22477165501706584,0.4696863100862002 l -8.451527018070093 3.9557413870730116" fill="#ff4e07" stroke="none" /><path d="M 119.16976305983485 91.42560881287824 l 8.329857934095505 -3.725839502405415 a30.125152776797684,30.125152776797684 0 0,0 0.20709768381104612,0.47388002933207957 l -8.392589499923522 3.582297403297486" fill="#ff4b07" stroke="none" /><path d="M 119.4528033332814 92.08871423366111 l 8.325596664207534 -3.3859476835986166 a29.987780678851173,29.987780678851173 0 0,0 0.18983882372722513,0.47851784769074895 l -8.382494162900883 3.242528818694302" fill="#ff4906" stroke="none" /><path d="M 119.71291397450082 92.76114493625339 l 10.244511075340654 -3.7619263681292336 a31.913390727542165,31.913390727542165 0 0,0 0.18442874628646266,0.5158800273979974 l -10.307579991671059 3.5855113843503195" fill="#ff6509" stroke="none" /><path d="M 120.05942366710727 93.78553927170692 l 12.144621417390457 -3.762434759385274 a33.71407663538212,33.71407663538212 0 0,0 0.16652133791912188,0.5542953758027633 l -12.207419075313206 3.553401779991787" fill="#ff7f0b" stroke="none" /><path d="M 120.26092885502905 94.47779374421319 l 13.075197635361182 -3.563703258338938 a34.55215016583163,34.55215016583163 0 0,0 0.15105956409704413,0.5735977696975022 l -13.134446680262956 3.3387249842686373" fill="#ff8a0c" stroke="none" /><path d="M 120.43855184770803 95.1765574152323 l 10.228102678303808 -2.4138043823999973 a31.50906922588385,31.50906922588385 0 0,0 0.11971816603110093,0.5275003290171041 l -10.268031705892575 2.237869719443867" fill="#ff5f08" stroke="none" /><path d="M 120.65975698304385 96.23510406497455 l 8.898143191065492 -1.6215381021573447 a30.04468562557335,30.04468562557335 0 0,0 0.08810987845901803,0.5081943646625798 l -8.924667887016744 1.4685507045741721" fill="#ff4a06" stroke="none" /><path d="M 120.7213421655516 96.59031103205396 l 7.802080292116084 -1.2838293430279488 a28.907001623032954,28.907001623032954 0 0,0 0.07636749127631498,0.49033407633577847 l -7.822969275530665 1.1497070847607291" fill="#ff3905" stroke="none" /><path d="M 120.86939407059847 97.66154086499901 l 10.20472282190112 -1.1434604772089276 a31.26858654999647,31.26858654999647 0 0,0 0.05519293780420593,0.5339416062587377 l -10.222848152186993 0.9681143486672587" fill="#ff5b08" stroke="none" /><path d="M 120.96210409425399 98.7389718711861 l 12.928105152838839 -0.7777227026776689 a33.95147695998871,33.95147695998871 0 0,0 0.03000406895138974,0.582070922005523 l -12.939550811246802 0.5556799872954151" fill="#ff820c" stroke="none" /><path d="M 120.99303781780057 99.45929381324524 l 29.999645086387915 -0.7726844413581159 a51.00959424176134,51.00959424176134 0 0,0 0.015032207766163408,0.8755507409337824 l -30.00848872575274 0.25758678445526706" fill="#a0ff22" stroke="none" /><line stroke="#e1ed5e" stroke-width="0.3" x1="184.99686870605535" x2="189.99668451229388" y1="99.2704041080226" y2="99.22748670261217" /><path d="M 185.99683186730306 99.26182062694052 a86.0,86.0 0 0,1 -10.086455211305974,41.156179273409016" fill="none" id="id4" stroke="none" /><text fill="#e1ed5e" style="font-size:6.75px; font-family:Arial;" text-anchor="middle"><textPath startOffset="21.40746469413373" xlink:href="#id4">April</textPath></text><path d="M 120.7213421655516 103.40968896794604 l 5.974782821887928 0.9831482396701422 a27.055130901136124,27.055130901136124 0 0,0 -0.07934262734847425,0.45762719006328767 l -5.957025377047219 -1.0855684626540179" fill="#ff1d02" stroke="none" /><path d="M 120.65975698304385 103.76489593502545 l 10.490742056937847 1.9117626677788109 a31.663512807847013,31.663512807847013 0 0,0 -0.10203749100373077,0.5339032698711152 l -10.456378273651957 -2.091568502683241" fill="#ff6109" stroke="none" /><path d="M 120.592083275326 104.11899336999214 l 7.390975454328605 1.478402087205631 a28.53738621127655,28.53738621127655 0 0,0 -0.10021010410994044,0.4795416246321002 l -7.3645076393943 -1.60506016312314" fill="#ff3304" stroke="none" /><path d="M 120.51834098615036 104.47187691870673 l 10.740948263150102 2.340939681986238 a31.9930872909463,31.9930872909463 0 0,0 -0.12155718433595487,0.5356033829899385 l -10.699180217256483 -2.5249773989151936" fill="#ff6609" stroke="none" /><path d="M 120.43855184770803 104.8234425847677 l 8.681574531012835 2.0488279506171523 a29.920057864653167,29.920057864653167 0 0,0 -0.122262579625783,0.49887304708080604 l -8.645124424870756 -2.197556822306058" fill="#ff4806" stroke="none" /><path d="M 120.35273937422433 105.17358676015961 l 5.879558982472978 1.4945609015080796 a27.066541528473643,27.066541528473643 0 0,0 -0.11833301097854736,0.4493297169537646 l -5.8530364906897 -1.5952711228346474" fill="#ff1d03" stroke="none" /><path d="M 120.05942366710727 106.21446072829308 l 8.582477710538287 2.658873533393108 a29.984905793521982,29.984905793521982 0 0,0 -0.15654303186023907,0.4903688176829565 l -8.535569962900794 -2.805811384767448" fill="#ff4906" stroke="none" /><path d="M 119.83427380445688 106.89939002012753 l 5.8619369742678895 2.0390859709616627 a27.20646249382542,27.20646249382542 0 0,0 -0.15722722199792805,0.43979252272320335 l -5.826069582226019 -2.1394134500657875" fill="#ff1f03" stroke="none" /><path d="M 119.4528033332814 107.91128576633889 l 11.357933306873448 4.619172597707896 a33.2612970150307,33.2612970150307 0 0,0 -0.2196420130085951,0.5270608733533373 l -11.276965449328367 -4.813465980502512" fill="#ff780b" stroke="none" /><path d="M 119.31412917781788 108.2440532568976 l 8.608941547463346 3.674645227304255 a30.36038952790911,30.36038952790911 0 0,0 -0.20871483698080984,0.47758039225945786 l -8.544592828465571 -3.8218876893395572" fill="#ff4e07" stroke="none" /><path d="M 119.0197475246899 108.90220220490707 l 9.310482491985205 4.357775920069724 a31.279848987368567,31.279848987368567 0 0,0 -0.2317996814436282,0.4843721822849424 l -9.234303552581665 -4.516960604419769" fill="#ff5c08" stroke="none" /><line stroke="#e1ed5e" stroke-width="0.3" x1="174.33088141563837" x2="178.70328620479359" y1="141.23008692659167" y2="143.65538615756765" /><path d="M 175.20536237346943 141.71514677278685 a86.0,86.0 0 0,1 -30.301960400862466,31.631185727798858" fill="none" id="id5" stroke="none" /><text fill="#e1ed5e" style="font-size:6.75px; font-family:Arial;" text-anchor="middle"><textPath startOffset="22.145653131862474" xlink:href="#id5">May</textPath></text><path d="M 117.81537515405839 111.11811171558189 l 25.201659110740497 15.727699191751006 a50.706634676451905,50.706634676451905 0 0,0 -0.4671827012896481,0.734488803411473 l -24.92795871782496 -16.158001669841152" fill="#a4ff21" stroke="none" /><path d="M 117.21940702142032 112.02048342749411 l 12.186348475163612 8.507017675181805 a35.86191235622045,35.86191235622045 0 0,0 -0.35671485852649426,0.5017641211431142 l -12.038518518107159 -8.714959023034423" fill="#ff9d0e" stroke="none" /><path d="M 117.01052211995028 112.31430620078461 l 4.840850567701158 3.5044024952649897 a26.9761752875591,26.9761752875591 0 0,0 -0.27476901968387973,0.3727769461193532 l -4.779979528433447 -3.5869857506532226" fill="#ff1c02" stroke="none" /><path d="M 116.79662413953412 112.60449989151573 l 5.370415654950101 4.030060027412776 a27.71436878131395,27.71436878131395 0 0,0 -0.28882070507924545,0.37807557421792504 l -5.300442972516551 -4.121656514871575" fill="#ff2703" stroke="none" /><path d="M 116.35404254752997 113.17365903436017 l 18.480495077208808 14.886578668592904 a44.730548302872066,44.730548302872066 0 0,0 -0.4868242424676962,0.593846419296004 l -18.222224015502487 -15.201627369587401" fill="#ecff1a" stroke="none" /><path d="M 115.6541949942343 113.99807769240083 l 6.8579977734179165 6.132463897503118 a30.199959071342885,30.199959071342885 0 0,0 -0.3488847383423291,0.3834854430487323 l -6.751715334233708 -6.249286916109522" fill="#ff4c07" stroke="none" /><path d="M 115.16444852881244 114.52719865689866 l 4.314104223762386 4.132814257378716 a26.974248818008608,26.974248818008608 0 0,0 -0.32319414436443533,0.3316256639680229 l -4.242523278247141 -4.206262613414476" fill="#ff1c02" stroke="none" /><path d="M 113.86319453409587 115.77377054828091 l 5.898514866942373 6.711427143140836 a29.93508432714699,29.93508432714699 0 0,0 -0.38890025140357287,0.3359227746121741 l -5.782435135775944 -6.811694050217727" fill="#ff4806" stroke="none" /><path d="M 113.31354834802062 116.24036423190432 l 5.65754873106431 6.901289547342409 a29.92388116576106,29.92388116576106 0 0,0 -0.40005269453658976,0.32225413247429996 l -5.538245266172467 -6.997391973610112" fill="#ff4806" stroke="none" /><path d="M 112.45986205192187 116.90419585922612 l 7.022346951137285 9.527162319999686 a32.83554724437231,32.83554724437231 0 0,0 -0.4566001585771164,0.33054330280967575 l -6.857765782186201 -9.646306394182439" fill="#ff720a" stroke="none" /><path d="M 111.8722381534696 117.32195027204791 l 3.924247638833102 5.725594582619026 a27.94133653235481,27.94133653235481 0 0,0 -0.3979694034456252,0.2677715754483845 l -3.8253819472904733 -5.792115832124531" fill="#ff2a04" stroke="none" /><path d="M 111.27062007382361 117.71928675628689 l 5.322315906373908 8.367564617994613 a30.916813210076917,30.916813210076917 0 0,0 -0.45026050014997737,0.2809958532161925 l -5.177891277434216 -8.457696268052354" fill="#ff5608" stroke="none" /><path d="M 110.96478420261333 117.91015095944535 l 3.4812628875931075 5.686381299820458 a27.66739256227507,27.66739256227507 0 0,0 -0.4071945120221732,0.24450860482070372 l -3.3831356190134976 -5.745303905177085" fill="#ff2603" stroke="none" /><line stroke="#e1ed5e" stroke-width="0.3" x1="143.1302829299769" x2="145.66735839644613" y1="173.24464959558577" y2="177.55315839532614" /><path d="M 143.63769802327073 174.10635135553383 a86.0,86.0 0 0,1 -40.68552437913181,11.842963189579606" fill="none" id="id6" stroke="none" /><text fill="#e1ed5e" style="font-size:6.75px; font-family:Arial;" text-anchor="middle"><textPath startOffset="21.407464694133747" xlink:href="#id6">June</textPath></text><path d="M 108.73861861582097 119.09545874513695 l 2.7159091401394146 5.934751614766555 a27.526671371110012,27.526671371110012 0 0,0 -0.4313646958204775,0.1929439417030763 l -2.6136310414633104 -5.980499307379482" fill="#ff2403" stroke="none" /><path d="M 108.07796709384702 119.3841803445677 l 24.074337062437998 57.76964499517006 a83.58518664878977,83.58518664878977 0 0,0 -1.329185723425127,0.540568262290673 l -23.07909687782243 -58.17440051404002" fill="#4cd6ff" stroke="none" /><path d="M 106.72888874123015 119.89276391827305 l 3.769041895040122 11.142502647830486 a32.76269705737069,32.76269705737069 0 0,0 -0.5343085140707118,0.1756378212906461 l -3.577210643321676 -11.205561390523151" fill="#ff710a" stroke="none" /><path d="M 106.38641147887787 120.00534299687104 l 3.61074031758803 11.310592617604314 a32.872950391644906,32.872950391644906 0 0,0 -0.5390527805956823,0.16699992936398025 l -3.4160469041207233 -11.370909134774939" fill="#ff730a" stroke="none" /><path d="M 105.3480935250658 120.30758222061773 l 2.4430646750950875 9.276714501579285 a30.5930181356291,30.5930181356291 0 0,0 -0.50900183813563,0.12938627681787043 l -2.28345754373406 -9.317286010232424" fill="#ff5207" stroke="none" /><path d="M 104.64783097203109 120.47920084513623 l 1.9967273397253167 8.797949079748909 a30.021686542939808,30.021686542939808 0 0,0 -0.5035603008049013,0.10974862382228794 l -1.8454046223012794 -8.830929161704915" fill="#ff4906" stroke="none" /><path d="M 103.58742460773223 120.69131181640829 l 2.0377310977328342 11.75309146575635 a32.928432714699035,32.928432714699035 0 0,0 -0.5577802050391258,0.09178252047892378 l -1.835673389640636 -11.786339984730944" fill="#ff730a" stroke="none" /><path d="M 100.72087961077811 120.9876233191556 l 0.40873278751424724 11.899809141887253 a32.90682661774046,32.90682661774046 0 0,0 -0.5647229613912437,0.014545260275186964 l -0.20439651205225973 -11.905072119512486" fill="#ff730a" stroke="none" /><line stroke="#e1ed5e" stroke-width="0.3" x1="101.45913802915013" x2="101.54496967792366" y1="184.9874750549273" y2="189.98673829345242" /><path d="M 101.47630435890484 185.9873277026323 a86.0,86.0 0 0,1 -42.54439059252881,-10.42667462771756" fill="none" id="id7" stroke="none" /><text fill="#e1ed5e" style="font-size:6.75px; font-family:Arial;" text-anchor="middle"><textPath startOffset="22.145653131862474" xlink:href="#id7">July</textPath></text><path d="M 100.0 121.0 l 1.03761399729465e-15 8.472761273022371 a29.47276127302237,29.47276127302237 0 0,0 -0.5059391387944673,-0.004342879012773885 l 0.14544621394561413 -8.471512792204033" fill="#ff4106" stroke="none" /><path d="M 98.55909050195518 120.95050786540614 l -0.6274052041878344 9.122333972376312 a30.14388398842707,30.14388398842707 0 0,0 -0.5159355487304289,-0.039936674476194735 l 0.7839097476934994 -9.110219530905063" fill="#ff4b07" stroke="none" /><path d="M 98.19965949673042 120.92268563240118 l -0.8213038782229167 9.544796010267211 a30.580066332651192,30.580066332651192 0 0,0 -0.5226285313573195,-0.04949346529437377 l 0.9850319729652514 -9.529290789467654" fill="#ff5107" stroke="none" /><path d="M 97.48249496171623 120.84855314841334 l -1.7870963681333092 14.799721567891469 a35.90722884764661,35.90722884764661 0 0,0 -0.6113157460703014,-0.07914706229641041 l 2.0408899360944046 -14.766862909394662" fill="#ff9d0e" stroke="none" /><path d="M 96.05791012581884 120.62667999033965 l -2.7860124184959996 14.577594230361322 a35.84143250299908,35.84143250299908 0 0,0 -0.6033367787340536,-0.12068425317878058 l 3.035845682761011 -14.527620580519681" fill="#ff9c0e" stroke="none" /><path d="M 95.35216902796893 120.47920084513623 l -1.9907383909179408 8.771560666268407 a29.994627055253687,29.994627055253687 0 0,0 -0.5011500092501023,-0.11827003762229549 l 2.1410205539079312 -8.736094484999885" fill="#ff4906" stroke="none" /><path d="M 93.27111125876986 119.89276391827306 l -2.9164564112755005 8.621985159592821 a30.10188695222638,30.10188695222638 0 0,0 -0.4880723217993501,-0.16977688920308515 l 3.0640345051198725 -8.570649837821145" fill="#ff4a06" stroke="none" /><path d="M 91.26138138417905 119.09545874513695 l -3.9696058420715925 8.674305164719852 a30.539462282125466,30.539462282125466 0 0,0 -0.474832338448091,-0.22224551008400859 l 4.117926894391173 -8.604883423065317" fill="#ff5107" stroke="none" /><path d="M 89.97174638481275 118.45085714620012 l -4.557148114873046 8.384639249077038 a30.543048479288686,30.543048479288686 0 0,0 -0.4585177878345557,-0.2543320876836773 l 4.700410090863704 -8.305174245960211" fill="#ff5107" stroke="none" /><line stroke="#e1ed5e" stroke-width="0.3" x1="58.13341422392154" x2="55.67067388415222" y1="173.97424548756322" y2="178.32567169271397" /><path d="M 57.64086615596768 174.84453072859336 a86.0,86.0 0 0,1 -31.369924170532247,-30.572349798747897" fill="none" id="id8" stroke="none" /><text fill="#e1ed5e" style="font-size:6.75px; font-family:Arial;" text-anchor="middle"><textPath startOffset="22.145653131862474" xlink:href="#id8">August</textPath></text><path d="M 89.65649057296885 118.27599006163327 l -4.669870789866811 8.251214227318004 a30.48104579775598,30.48104579775598 0 0,0 -0.45316248026435846,-0.2616334799672678 l 4.810825737991569 -8.169833850074564" fill="#ff5007" stroke="none" /><path d="M 86.40962598614128 116.0094264158162 l -5.897767743136515 6.947555571688767 a30.1132975795639,30.1132975795639 0 0,0 -0.39121550055773113,-0.33792263168857656 l 6.016162723457109 -6.845288807535469" fill="#ff4b06" stroke="none" /><path d="M 82.98947788004972 112.3143062007846 l -7.3516281202673275 5.322011817679293 a30.075805518312045,30.075805518312045 0 0,0 -0.29916103201546085,-0.42080745649219276 l 7.441904250812749 -5.195027134477596" fill="#ff4a06" stroke="none" /><path d="M 82.78059297857968 112.02048342749411 l -7.34583718997629 5.127964865069815 a29.958646531649144,29.958646531649144 0 0,0 -0.2907561730605744,-0.42422194584888306 l 7.432783099852189 -5.0011081841508815" fill="#ff4806" stroke="none" /><line stroke="#e1ed5e" stroke-width="0.3" x1="26.387840678322732" x2="22.057713659400534" y1="142.50000000000003" y2="145.00000000000006" /><path d="M 25.521815274538284 143.00000000000003 a86.0,86.0 0 0,1 -11.493303480769212,-40.785679425670985" fill="none" id="id9" stroke="none" /><text fill="#e1ed5e" style="font-size:6.75px; font-family:Arial;" text-anchor="middle"><textPath startOffset="21.40746469413373" xlink:href="#id9">September</textPath></text><path d="M 81.63589988554817 110.18625677009913 l -5.591778420285064 3.1016652291989097 a27.39439700797403,27.39439700797403 0 0,0 -0.2245748971146014,-0.41319251629304815 l 5.644198667014995 -3.005217879431275" fill="#ff2203" stroke="none" /><line stroke="#e1ed5e" stroke-width="0.3" x1="15.003131293944662" x2="10.003315487706104" y1="100.72959589197737" y2="100.7725132973878" /><path d="M 14.003168132696942 100.73817937305945 a86.0,86.0 0 0,1 10.791469493833604,-42.45332614584628" fill="none" id="id10" stroke="none" /><text fill="#e1ed5e" style="font-size:6.75px; font-family:Arial;" text-anchor="middle"><textPath startOffset="22.145653131862435" xlink:href="#id10">October</textPath></text><path d="M 79.06263194458094 98.37931529534042 l -14.904699312230829 -1.1537179906731727 a35.949285159833465,35.949285159833465 0 0,0 0.05290772242363032,-0.6148679329191414 l 14.882697967109454 1.4094069709679948" fill="#ff9e0e" stroke="none" /><path d="M 79.13060592940154 97.66154086499901 l -8.89250315549324 -0.9964235265596282 a29.94815468209724,29.94815468209724 0 0,0 0.06163317932061852,-0.5104111392951238 l 8.874087889912953 1.1489283427781882" fill="#ff4806" stroke="none" /><path d="M 79.22317932658666 96.9465228501225 l -11.818698928883771 -1.736941743296058 a32.94565238868111,32.94565238868111 0 0,0 0.08703693500263572,-0.558839558801265 l 11.787140501742867 1.9395694840287732" fill="#ff740a" stroke="none" /><path d="M 79.48165901384962 95.52812308129327 l -12.548722552533226 -2.734935674370832 a33.843298285230404,33.843298285230404 0 0,0 0.1285870291535999,-0.5665781763498975 l 12.499924661821964 2.9499481846597377" fill="#ff800b" stroke="none" /><path d="M 79.56144815229197 95.17655741523228 l -11.5746442615412 -2.731584529601386 a32.89260038105991,32.89260038105991 0 0,0 0.13440930466712872,-0.5484358303295683 l 11.526047430357773 2.929876184539072" fill="#ff730a" stroke="none" /><path d="M 79.73907114497095 94.47779374421319 l -8.758766230950073 -2.3872406847488246 a30.078265471738057,30.078265471738057 0 0,0 0.14005229302893238,-0.49699618006831925 l 8.71649544584656 2.537244788720157" fill="#ff4a06" stroke="none" /><path d="M 79.94057633289273 93.78553927170692 l -28.348179663516355 -8.782338523832763 a50.677411615270614,50.677411615270614 0 0,0 0.26457297267205343,-0.828771068621499 l 28.193241975067043 9.267678626145653" fill="#a4ff21" stroke="none" /><path d="M 80.05021161711548 93.44210830539832 l -11.485593359720676 -3.7755426702122157 a33.09022651894715,33.09022651894715 0 0,0 0.18201921744814897,-0.5381074736900544 l 11.419088720700163 3.9721518183764317" fill="#ff760a" stroke="none" /><path d="M 80.16572619554312 93.10060997987247 l -9.057703024104903 -3.150739294309114 a30.590054336320655,30.590054336320655 0 0,0 0.1767811329810672,-0.494488291885194 l 9.002281721079893 3.3057625425752297" fill="#ff5207" stroke="none" /><path d="M 80.28708602549916 92.7611449362534 l -15.244838950187965 -5.598116025531125 a37.24019758662057,37.24019758662057 0 0,0 0.2255147838907538,-0.5982047570383129 l 15.146493482482775 5.858989062763583" fill="#ffb010" stroke="none" /><path d="M 80.68587082218212 91.75594674310238 l -34.77145668568971 -14.841867220498788 a58.80654999647167,58.80654999647167 0 0,0 0.4042701588078643,-0.9250492385455455 l 34.511552644864864 15.4365785288202" fill="#4aff2c" stroke="none" /><path d="M 81.1358732173502 90.77261029715801 l -13.174245024861666 -6.444183411496874 a35.665886669959775,35.665886669959775 0 0,0 0.2737443194687684,-0.5476720129873932 l 13.061680792181152 6.669387280648037" fill="#ff9a0e" stroke="none" /><path d="M 81.29705330413844 90.45014215332179 l -23.77355561751128 -12.13894689159155 a47.6933695575471,47.6933695575471 0 0,0 0.3785761842209263,-0.7259697503845735 l 23.56167136431542 12.545262885080609" fill="#c8ff1d" stroke="none" /><path d="M 81.63589988554816 89.8137432299009 l -11.311461482535874 -6.27427700720938 a33.93505751181992,33.93505751181992 0 0,0 0.2869397128657228,-0.5069949786014764 l 11.202088404648782 6.467528755909962" fill="#ff820b" stroke="none" /><line stroke="#e1ed5e" stroke-width="0.3" x1="26.387840678322718" x2="22.05771365940052" y1="57.49999999999999" y2="54.99999999999999" /><path d="M 25.521815274538284 56.99999999999999 a86.0,86.0 0 0,1 29.574782752854787,-30.34633250058573" fill="none" id="id11" stroke="none" /><text fill="#e1ed5e" style="font-size:6.75px; font-family:Arial;" text-anchor="middle"><textPath startOffset="21.40746469413373" xlink:href="#id11">November</textPath></text><path d="M 82.18462484594161 88.88188828441811 l -53.44612546217515 -33.35433514674566 a84.0,84.0 0 0,0 0.7739292334964403,-1.2167453012853122 l 52.865678537052815 34.266894122709644" fill="#4dd2ff" stroke="none" /><path d="M 82.78059297857968 87.97951657250589 l -9.946865620840127 -6.9436847158606465 a33.130741655493615,33.130741655493615 0 0,0 0.32954817649222506,-0.4635507806851215 l 9.82620234581793 7.113412723255288" fill="#ff760a" stroke="none" /><path d="M 83.42222388311158 87.10902102172516 l -11.744472905785724 -9.132573167348282 a35.87738338861054,35.87738338861054 0 0,0 0.38223690689404666,-0.48294384516604055 l 11.585969568250116 9.332836956429006" fill="#ff9d0e" stroke="none" /><path d="M 83.8745106332314 86.54754324733833 l -12.509469849419421 -10.435844663098262 a37.29090819278809,37.29090819278809 0 0,0 0.4142938863397402,-0.48803715638105416 l 12.328481399572567 10.649048601928873" fill="#ffb010" stroke="none" /><path d="M 84.10781606972428 86.27271002978789 l -23.535190606513975 -20.32913710143705 a52.099501799449584,52.099501799449584 0 0,0 0.5904335715018286,-0.6718050199732868 l 23.182745971053553 20.730154399221636" fill="#93ff23" stroke="none" /><path d="M 84.58840730492382 85.73525988315684 l -23.36384837057688 -21.62522924980281 a52.83582809964011,52.83582809964011 0 0,0 0.6218126992637727,-0.6603435383644913 l 22.989179837576835 22.023114248111813" fill="#8bff24" stroke="none" /><path d="M 84.83555147118756 85.47280134310135 l -2.9993740379957545 -2.8733324798142745 a25.153586902829723,25.153586902829723 0 0,0 0.30137973634058407,-0.309242159591094 l 2.949607500504368 2.924397331473099" fill="#ff0000" stroke="none" /><path d="M 85.34317274990677 84.96080404539775 l -20.748672564952386 -21.28996590992868 a50.72827041140357,50.72827041140357 0 0,0 0.6288554539311202,-0.6024292995801428 l 20.380144625155964 21.64300733981439" fill="#a3ff21" stroke="none" /><path d="M 85.60350026404147 84.71141617570332 l -7.044847041070102 -7.481383425981603 a31.276233152212264,31.276233152212264 0 0,0 0.3940361979770912,-0.3647140222287318 l 6.915381071779057 7.601215194342701" fill="#ff5c08" stroke="none" /><path d="M 85.86807049272753 84.46653392183569 l -9.987168512514453 -10.977647689667517 a35.84089901912356,35.84089901912356 0 0,0 0.45865252554903285,-0.410129916537763 l 9.797250960142028 11.14747313608868" fill="#ff9c0e" stroke="none" /><path d="M 86.40962598614128 83.9905735841838 l -19.455074500203345 -22.918028842150555 a51.06220167948627,51.06220167948627 0 0,0 0.673110856146794,-0.561533016214838 l 19.058789309894642 23.248624042277275" fill="#9fff22" stroke="none" /><path d="M 86.96720088162412 83.53348406188908 l -16.7070717685608 -21.10883940260201 a47.920426222567215,47.920426222567215 0 0,0 0.6494131786563371,-0.5049876156636635 l 16.34224864526922 21.392528069886477" fill="#c5ff1e" stroke="none" /><path d="M 87.83215693770416 82.88440491214696 l -6.8914761426848115 -9.693724237887833 a32.893726624797125,32.893726624797125 0 0,0 0.46302605047039236,-0.3232281436436104 l 6.724055001040654 9.810597197336572" fill="#ff730a" stroke="none" /><path d="M 88.4268655584334 82.4767994020092 l -8.182731173710689 -12.389697926723077 a35.847952861477665,35.847952861477665 0 0,0 0.5164057521318978,-0.33472796949460065 l 7.968839789321765 12.528339737921584" fill="#ff9c0e" stroke="none" /><path d="M 88.72937992617638 82.28071324371311 l -7.968394404575357 -12.52763951912379 a35.8471229976713,35.8471229976713 0 0,0 0.5220636234464587,-0.3258063126892372 l 7.752166652339199 12.662581628654562" fill="#ff9c0e" stroke="none" /><path d="M 89.03521579738668 82.08984904055464 l -15.491086737354376 -25.303525985103516 a50.668875873262294,50.668875873262294 0 0,0 0.7457185616420335,-0.4477825700314581 l 15.054435419154908 25.5657225556709" fill="#a4ff21" stroke="none" /><line stroke="#e1ed5e" stroke-width="0.3" x1="56.869717070023135" x2="54.33264160355391" y1="26.7553504044142" y2="22.446841604673864" /><path d="M 56.362301976729285 25.89364864446614 a86.0,86.0 0 0,1 42.16139366436587,-11.88097634709845" fill="none" id="id12" stroke="none" /><text fill="#e1ed5e" style="font-size:6.75px; font-family:Arial;" text-anchor="middle"><textPath startOffset="22.145653131862474" xlink:href="#id12">December</textPath></text><path d="M 89.65649057296885 81.72400993836675 l -5.99184881074479 -10.587022720721981 a33.165003175499265,33.165003175499265 0 0,0 0.4978790476617836,-0.27616511499761953 l 5.809225574926904 10.688320751152746" fill="#ff770a" stroke="none" /><path d="M 90.28995756902619 81.37971332152246 l -12.157924188351942 -23.314422713558155 a47.29405687672006,47.29405687672006 0 0,0 0.7230873446592556,-0.36921355038433246 l 11.755909621979102 23.51969421561532" fill="#ccff1d" stroke="none" /><path d="M 90.93487009805054 81.0573650232925 l -19.208902153632106 -40.139217610251094 a65.49874955895844,65.49874955895844 0 0,0 1.0183848075382174,-0.47665551119129856 l 18.517028632222367 40.463049353012934" fill="#35ff63" stroke="none" /><path d="M 91.5904679813234 80.7573450057729 l -5.940045732511889 -13.591987095929383 a35.83328205490085,35.83328205490085 0 0,0 0.5657647367109494,-0.24149132365110657 l 5.705845920630508 13.691953069239894" fill="#ff9c0e" stroke="none" /><path d="M 92.592206182469 80.34994680014964 l -7.728747684448482 -20.501421463462254 a42.90985674970009,42.90985674970009 0 0,0 0.691483858336471,-0.2539224508305997 l 7.375674674457884 20.631074763301577" fill="#fffb17" stroke="none" /><path d="M 92.93061703081487 80.22567764915836 l -10.508232956632824 -29.39339780118705 a52.215297438430596,52.215297438430596 0 0,0 0.8466193994637566,-0.2944981748812013 l 10.002107785124062 29.569454408636833" fill="#92ff23" stroke="none" /><path d="M 94.30408787586887 79.78721728523814 l -4.364657963532038 -15.488631340952388 a37.091859431232805,37.091859431232805 0 0,0 0.6143446944809171,-0.16744237835028097 l 4.098131868116444 15.56127421344681" fill="#ffae10" stroke="none" /><path d="M 95.00130118170881 79.60360301121753 l -1.0992128471920817 -4.485163523847568 a25.617895702491,25.617895702491 0 0,0 0.4280236138499398,-0.10101240742070818 l 1.022057079602236 4.503372074914508" fill="#ff0701" stroke="none" /><path d="M 96.05791012581881 79.37332000966035 l -11.175361623475107 -58.474214272352945 a80.53253263707572,80.53253263707572 0 0,0 1.360099625978007,-0.24785545915554513 l 10.169927263946061 58.657437905439856" fill="#48f4ff" stroke="none" /><path d="M 97.12497278360702 79.19773525538626 l -1.3218795306962912 -9.564461790566693 a30.655376473078825,30.655376473078825 0 0,0 0.5219036651148976,-0.06757087832451394 l 1.1574980436905995 9.585744265091602" fill="#ff5307" stroke="none" /><path d="M 97.84075906011542 79.11130261209362 l -2.2262656314826588 -21.537100479219063 a42.65185801989979,42.65185801989979 0 0,0 0.728941450751541,-0.06903151326374027 l 1.8562246173461023 21.57214374798799" fill="#fff717" stroke="none" /><path d="M 98.1996594967304 79.07731436759882 l -2.0703648995203383 -24.060778424055325 a45.149688801072614,45.149688801072614 0 0,0 0.7727713348264595,-0.05981738866305996 l 1.6570245699186619 24.092773579713437" fill="#e7ff1a" stroke="none" /><path d="M 99.27912038922189 79.0123766808444 l -0.37419506943213066 -10.894281163882347 a31.90070566650201,31.90070566650201 0 0,0 0.5474566473312047,-0.014100541272832834 l 0.187125108030182 10.899099422505223" fill="#ff6509" stroke="none" /></svg>