<?xml version="1.0" encoding="utf-8" ?>
<svg baseProfile="full" height="200mm" version="1.1" viewBox="0,0,200,200" width="200mm" xmlns="http://www.w3.org/2000/svg" xmlns:ev="http://www.w3.org/2001/xml-events" xmlns:xlink="http://www.w3.org/1999/xlink"><defs /><rect fill="#1a1a1a" height="200" width="200" x="0" y="0" /><text alignment-baseline="middle" fill="#e1ed5e" style="dominant-baseline: central; font-size:9.0px; font-family:Arial;" text-anchor="middle" x="100.0" y="100.0">2025</text><line stroke="#e1ed5e" stroke-width="0.3" x1="100.0" x2="100.0" y1="15.0" y2="10.0" /><path d="M 100.0 14.0 a86.0,86.0 0 0,1 42.46469731375804,11.215312516191453" fill="none" id="id13" stroke="none" /><text fill="#e1ed5e" style="font-size:6.75px; font-family:Arial;" text-anchor="middle"><textPath startOffset="22.20632615414155" xlink:href="#id13">January</textPath></text><path d="M 101.08401301168833 79.027996857942 l 1.5509409757529393 -30.00548763337997 a51.045543863062086,51.045543863062086 0 0,0 0.8771033077816688,0.05290926679062593 l -2.06720633237422 29.974345097209042" fill="red" stroke="none" /><path d="M 104.66035177308747 79.52364482259891 l 4.210908745368535 -18.501621183987844 a39.97476584565957,39.97476584565957 0 0,0 0.6696274163677411,0.15847917466013073 l -4.5287598486988 18.426396097186842" fill="red" stroke="none" /><path d="M 105.36241919743992 79.69619591428918 l 14.913308660391742 -56.466472717180864 a79.40264819612418,79.40264819612418 0 0,0 1.318470048915029,0.36038766986311677 l -15.883076598530481 56.20139850649145" fill="red" stroke="none" /><path d="M 106.74666289553966 80.11325718540242 l 8.167386981159204 -24.074527937209723 a46.422216769973076,46.422216769973076 0 0,0 0.7545113330889286,0.2632341888963446 l -8.580580318311405 23.930372895141172" fill="red" stroke="none" /><path d="M 107.4271985657038 80.35727306442388 l 15.683973056865828 -41.479434984212666 a65.34558081092206,65.34558081092206 0 0,0 1.0486933726740688,0.40687673616847325 l -16.395649594539563 41.20331554415365" fill="red" stroke="none" /><path d="M 110.36928655335952 81.73862282372117 l 16.101731665690032 -28.35680098387606 a53.60941466314658,53.60941466314658 0 0,0 0.7985333370120663,0.4625620505578609 l -16.587461735167427 28.075434775928148" fill="red" stroke="none" /><line stroke="#e1ed5e" stroke-width="0.3" x1="143.23703022742887" x2="145.7803849466894" y1="26.81831364943548" y2="22.513508569990506" /><path d="M 143.74570117128098 25.957352633546492 a86.0,86.0 0 0,1 28.547481713284135,27.462654790039103" fill="none" id="id14" stroke="none" /><text fill="#e1ed5e" style="font-size:6.75px; font-family:Arial;" text-anchor="middle"><textPath startOffset="19.985693538727396" xlink:href="#id14">February</textPath></text><path d="M 111.90073688211348 82.69761687909136 l 7.803075896949536 -11.34482763781361 a34.769281302422954,34.769281302422954 0 0,0 0.49019530917637316,0.3434131403965243 l -7.997202345709559 11.208829654653151" fill="red" stroke="none" /><path d="M 115.68641384162765 86.03803664274999 l 10.555473509452836 -9.395081364378422 a35.13101464340234,35.13101464340234 0 0,0 0.39816511075692934,0.4551715513941058 l -10.715630483787615 9.211994256781368" fill="red" stroke="none" /><path d="M 115.9244219780498 86.31012108654704 l 17.350920938663116 -14.916209016227231 a43.881165810236084,43.881165810236084 0 0,0 0.4874766786352411,0.5770186294446633 l -17.605108230785472 14.615331437153463" fill="red" stroke="none" /><path d="M 116.15771136456269 86.58626213691792 l 13.25908233419601 -11.007366744154067 a38.23268368494291,38.23268368494291 0 0,0 0.41601075590357794,0.5099799970723142 l -13.446591582175998 10.777502577473653" fill="red" stroke="none" /><path d="M 116.60985879189232 87.15038557335679 l 11.035038759152874 -8.536857237304863 a34.951702831774,34.951702831774 0 0,0 0.3640370637831408,0.4790301039936451 l -11.180351763160129 8.345642357430185" fill="red" stroke="none" /><path d="M 117.04232023915458 87.72973835380427 l 19.215869653613915 -13.835190578529577 a44.678305363537184,44.678305363537184 0 0,0 0.4439904046627953,0.6279929406380994 l -19.451172678080592 13.502371137559685" fill="red" stroke="none" /><path d="M 117.45458315368197 88.32363383020206 l 20.999710192304835 -14.04790383740933 a46.265221756119445,46.265221756119445 0 0,0 0.43710360296789674,0.665738775274591 l -21.238410430630655 13.684346998157064" fill="red" stroke="none" /><line stroke="#e1ed5e" stroke-width="0.3" x1="172.23445277983987" x2="176.4835382374775" y1="55.19839476539836" y2="52.563006222186495" /><path d="M 173.08426987136738 54.67131705675599 a86.0,86.0 0 0,1 12.851231095245387,41.99856678651699" fill="none" id="id15" stroke="none" /><text fill="#e1ed5e" style="font-size:6.75px; font-family:Arial;" text-anchor="middle"><textPath startOffset="22.20632615414155" xlink:href="#id15">March</textPath></text><path d="M 118.21658344932153 89.55222093294921 l 26.472351969163448 -15.182719939140274 a51.5172148717677,51.5172148717677 0 0,0 0.4345657598299752,0.773043996586975 l -26.729775370285857 14.724792432618505" fill="red" stroke="none" /><path d="M 118.56541770881063 90.18545643968196 l 15.237604955392849 -8.055306911766865 a38.23579340266562,38.23579340266562 0 0,0 0.30259181805531826,0.5845110794416005 l -15.374006206608284 7.791823110064919" fill="red" stroke="none" /><path d="M 118.73160827565052 90.50648371742162 l 20.880386578341035 -10.58255580892601 a44.40899466252231,44.40899466252231 0 0,0 0.3397076346352263,0.6848298621837697 l -21.05945422592967 10.22156635824329" fill="red" stroke="none" /><path d="M 119.196687751892 91.48605970444005 l 43.60976298773783 -19.34140530803423 a68.70640823973571,68.70640823973571 0 0,0 0.47017853130435283,1.0852368755001152 l -43.93623222888486 18.587869287947512" fill="red" stroke="none" /><path d="M 119.61058180528143 92.48833698450437 l 16.69526621177741 -6.394976700950691 a38.878133036976166,38.878133036976166 0 0,0 0.2340008392141505,0.6270059111961584 l -16.802871639493187 6.1066476527252" fill="red" stroke="none" /><path d="M 120.08093135843002 93.85539295169968 l 45.97964896865951 -14.069410929617773 a69.08405601847248,69.08405601847248 0 0,0 0.33816350296684683,1.1401192219218614 l -46.21501836873806 13.275862320949381" fill="red" stroke="none" /><path d="M 120.37134235888165 94.90015583598534 l 25.204921952870663 -6.309902011427823 a46.98274338949069,46.98274338949069 0 0,0 0.1896474091996011,0.7862109468677828 l -25.309802162331085 5.875105832900634" fill="red" stroke="none" /><path d="M 120.45610955862082 95.25157060432595 l 9.498876826337701 -2.2049523062443948 a30.751434542401846,30.751434542401846 0 0,0 0.11525288124887872,0.516656067819747 l -9.535424094588619 2.0411180688746837" fill="red" stroke="none" /><path d="M 120.53481517161879 95.60439243477599 l 22.41679225545842 -4.7984567088937915 a43.92461039606799,43.92461039606799 0 0,0 0.1518969587439002,0.7407035159421599 l -22.49606851011732 4.41187753678822" fill="red" stroke="none" /><path d="M 120.73433829027371 96.67025291283417 l 22.616224175918546 -3.631960929651645 a43.905997820874745,43.905997820874745 0 0,0 0.11341150592616174,0.7472401234519972 l -22.675391575284007 3.242121693807565" fill="red" stroke="none" /><path d="M 120.78858239683441 97.02765380044208 l 22.79789420983156 -3.2596370891954054 a44.029746293781216,44.029746293781216 0 0,0 0.10081554106063854,0.7511928809813397 l -22.850625749950034 2.8667258661494013" fill="red" stroke="none" /><path d="M 120.83666639777658 97.38593545837742 l 29.86748622369311 -3.7470262850245653 a51.10161024435674,51.10161024435674 0 0,0 0.10198335458519883,0.8737311019009115 l -29.9275599312819 3.232351444798801" fill="red" stroke="none" /><path d="M 120.87857604477298 97.74499172005257 l 9.319813989447601 -1.0065943993836546 a30.374015419379987,30.374015419379987 0 0,0 0.05166891120726474,0.5202988846243702 l -9.335760026337095 0.8460199840548493" fill="red" stroke="none" /><path d="M 120.94382443527127 98.46500227214037 l 51.07516376172441 -3.7433593165664925 a72.21215766065605,72.21215766065605 0 0,0 0.08018784947345085,1.2404705393720197 l -51.132032202202275 2.863629712941438" fill="red" stroke="none" /><path d="M 120.98425023603335 99.18683210126433 l 36.82681331542336 -1.4270885099059083 a57.85445374149709,57.85445374149709 0 0,0 0.029996998544722334,0.9954543448201121 l -36.84592200842373 0.7929640176607972" fill="red" stroke="none" /><line stroke="#e1ed5e" stroke-width="0.3" x1="184.98032266829074" x2="189.97916517819016" y1="98.17113171792111" y2="98.06355123074" /><path d="M 185.9800911702706 98.14961562048488 a86.0,86.0 0 0,1 -9.607161424134198,41.387399972396054" fill="none" id="id16" stroke="none" /><text fill="#e1ed5e" style="font-size:6.75px; font-family:Arial;" text-anchor="middle"><textPath startOffset="21.466115282336823" xlink:href="#id16">April</textPath></text><path d="M 120.95626037817324 101.35467743843564 l 28.761427897504383 1.8592275896000767 a49.82145835889075,49.82145835889075 0 0,0 -0.06268830391444252,0.8553321008232214 l -28.725163034925604 -2.3540328269200685" fill="red" stroke="none" /><path d="M 120.92983693683757 101.71520430193887 l 13.72040534472051 1.12438994831297 a34.76640024041515,34.76640024041515 0 0,0 -0.05401275446839664,0.5960262447485193 l -13.699017993975037 -1.36039758161006" fill="red" stroke="none" /><path d="M 120.8583938346157 102.4346265915055 l 62.575181503847105 7.303879774516526 a84.0,84.0 0 0,0 -0.1799939630126075,1.4347289828504204 l -62.44018603158764 -8.379926511654341" fill="red" stroke="none" /><path d="M 120.5718875245553 104.21870165774334 l 44.83800799696523 9.194984098611304 a66.7711119999245,66.7711119999245 0 0,0 -0.24058573213867432,1.1239364454375482 l -44.67308822610211 -9.965434363465022" fill="red" stroke="none" /><path d="M 120.32669344350535 105.2749913415812 l 32.530098797107556 8.441903744573409 a54.607634052134955,54.607634052134955 0 0,0 -0.24394510461214527,0.90781048406819 l -32.37996561615363 -9.000605161817148" fill="red" stroke="none" /><path d="M 120.13307415673323 105.97154293290107 l 26.615709583194576 7.894316150050975 a48.761776313735965,48.761776313735965 0 0,0 -0.24560430757323165,0.8026490877194525 l -26.47587850311521 -8.351292210322486" fill="red" stroke="none" /><path d="M 119.9155931802556 106.66101706037122 l 14.295073307335892 4.78116450349181 a36.073442037953946,36.073442037953946 0 0,0 -0.20202702586196625,0.587185103909457 l -14.210655450530695 -5.026522310490567" fill="red" stroke="none" /><path d="M 119.79798401119884 107.00284435728193 l 32.042633083541666 11.333960677744143 a54.98807143059355,54.98807143059355 0 0,0 -0.32331870265666274,0.8896342098537324 l -31.84279011987978 -11.883842684604005" fill="red" stroke="none" /><path d="M 119.54520255179757 107.68017299344265 l 4.425793058029224 1.7390894890324817 a25.755215709446095,25.755215709446095 0 0,0 -0.16568868150395735,0.4112257194629512 l -4.395201762267874 -1.8150145763382466" fill="red" stroke="none" /><path d="M 119.41010516605496 108.01547362559984 l 42.34533556053755 17.48666055381549 a66.8138706186117,66.8138706186117 0 0,0 -0.44812705330359415,1.0592399794181373 l -42.03805752604165 -18.21297505889979" fill="red" stroke="none" /><line stroke="#e1ed5e" stroke-width="0.3" x1="174.80103733775053" x2="179.2010983576182" y1="140.37084112569926" y2="142.7455964860345" /><path d="M 175.68104954172406 140.8457921977663 a86.0,86.0 0 0,1 -30.038265399797805,32.042727171017184" fill="none" id="id17" stroke="none" /><text fill="#e1ed5e" style="font-size:6.75px; font-family:Arial;" text-anchor="middle"><textPath startOffset="22.206326154141568" xlink:href="#id17">May</textPath></text><line stroke="#e1ed5e" stroke-width="0.3" x1="143.8653032363475" x2="146.44561519142675" y1="172.8068346515853" y2="177.08958963109032" /><path d="M 144.38136562736335 173.6633856474863 a86.0,86.0 0 0,1 -40.68145358897372,12.25698825130547" fill="none" id="id18" stroke="none" /><text fill="#e1ed5e" style="font-size:6.75px; font-family:Arial;" text-anchor="middle"><textPath startOffset="21.466115282336833" xlink:href="#id18">June</textPath></text><line stroke="#e1ed5e" stroke-width="0.3" x1="102.19456741930631" x2="102.32365962044197" y1="184.97166512339345" y2="189.96999836594603" /><path d="M 102.22038585953345 185.97133177190398 a86.0,86.0 0 0,1 -42.740103519485714,-10.115201625700543" fill="none" id="id19" stroke="none" /><text fill="#e1ed5e" style="font-size:6.75px; font-family:Arial;" text-anchor="middle"><textPath startOffset="22.20632615414155" xlink:href="#id19">July</textPath></text><line stroke="#e1ed5e" stroke-width="0.3" x1="58.666819895761336" x2="56.23545636021788" y1="174.27360380694188" y2="178.64263932499728" /><path d="M 58.180547188652646 175.14741091055294 a86.0,86.0 0 0,1 -31.652253787137756,-30.449443065178592" fill="none" id="id20" stroke="none" /><text fill="#e1ed5e" style="font-size:6.75px; font-family:Arial;" text-anchor="middle"><textPath startOffset="22.20632615414155" xlink:href="#id20">August</textPath></text><line stroke="#e1ed5e" stroke-width="0.3" x1="26.63291911575756" x2="22.317208475507996" y1="142.92168965132927" y2="145.44649492493687" /><path d="M 25.769776987707644 143.4266507060508 a86.0,86.0 0 0,1 -11.730757126820373,-40.83630448921669" fill="none" id="id21" stroke="none" /><text fill="#e1ed5e" style="font-size:6.75px; font-family:Arial;" text-anchor="middle"><textPath startOffset="21.46611528233685" xlink:href="#id21">September</textPath></text><line stroke="#e1ed5e" stroke-width="0.3" x1="15.007084014347285" x2="10.007500721073583" y1="101.09737516637583" y2="101.16192664675087" /><path d="M 14.007167355692545 101.11028546245083 a86.0,86.0 0 0,1 10.666146001902534,-42.60595125391555" fill="none" id="id22" stroke="none" /><text fill="#e1ed5e" style="font-size:6.75px; font-family:Arial;" text-anchor="middle"><textPath startOffset="22.20632615414155" xlink:href="#id22">October</textPath></text><line stroke="#e1ed5e" stroke-width="0.3" x1="26.266209847984243" x2="21.928928074336255" y1="57.711370442889674" y2="55.22380399835377" /><path d="M 25.398753493254645 57.213857153982495 a86.0,86.0 0 0,1 29.58750427330803,-30.492523968695096" fill="none" id="id23" stroke="none" /><text fill="#e1ed5e" style="font-size:6.75px; font-family:Arial;" text-anchor="middle"><textPath startOffset="21.46611528233685" xlink:href="#id23">November</textPath></text><line stroke="#e1ed5e" stroke-width="0.3" x1="56.762969772571076" x2="54.21961505331055" y1="26.818313649435495" y2="22.513508569990535" /><path d="M 56.25429882871897 25.957352633546506 a86.0,86.0 0 0,1 42.265352541879196,-11.944610805530505" fill="none" id="id24" stroke="none" /><text fill="#e1ed5e" style="font-size:6.75px; font-family:Arial;" text-anchor="middle"><textPath startOffset="22.20632615414155" xlink:href="#id24">December</textPath></text></svg>